<?xml version="1.0" encoding="utf-8" standalone="no"?>
<!DOCTYPE svg PUBLIC "-//W3C//DTD SVG 1.1//EN"
  "http://www.w3.org/Graphics/SVG/1.1/DTD/svg11.dtd">
<svg xmlns:xlink="http://www.w3.org/1999/xlink" width="2160pt" height="864pt" viewBox="0 0 2160 864" xmlns="http://www.w3.org/2000/svg" version="1.1">
 <metadata>
  <rdf:RDF xmlns:dc="http://purl.org/dc/elements/1.1/" xmlns:cc="http://creativecommons.org/ns#" xmlns:rdf="http://www.w3.org/1999/02/22-rdf-syntax-ns#">
   <cc:Work>
    <dc:type rdf:resource="http://purl.org/dc/dcmitype/StillImage"/>
    <dc:date>2026-05-25T18:03:36.605258</dc:date>
    <dc:format>image/svg+xml</dc:format>
    <dc:creator>
     <cc:Agent>
      <dc:title>Matplotlib v3.10.8, https://matplotlib.org/</dc:title>
     </cc:Agent>
    </dc:creator>
   </cc:Work>
  </rdf:RDF>
 </metadata>
 <defs>
  <style type="text/css">*{stroke-linejoin: round; stroke-linecap: butt}</style>
 </defs>
 <g id="figure_1">
  <g id="patch_1">
   <path d="M 0 864 
L 2160 864 
L 2160 0 
L 0 0 
z
" style="fill: #ffffff"/>
  </g>
  <g id="axes_1">
   <g id="patch_2">
    <path d="M 53.55 548.033333 
L 2115.95 548.033333 
L 2115.95 26.3 
L 53.55 26.3 
z
" style="fill: #ffffff"/>
   </g>
   <g id="FillBetweenPolyCollection_1"/>
   <g id="FillBetweenPolyCollection_2">
    <defs>
     <path id="mce098603d9" d="M 149.021231 -429.172956 
L 149.021231 -330.732704 
L 155.533593 -330.732704 
L 162.045955 -330.732704 
L 168.558317 -330.732704 
L 175.07068 -330.732704 
L 181.583042 -330.732704 
L 188.095404 -330.732704 
L 194.607766 -330.732704 
L 201.120129 -330.732704 
L 207.632491 -330.732704 
L 214.144853 -330.732704 
L 220.657215 -330.732704 
L 228.103016 -330.732704 
L 234.984412 -330.732704 
L 241.496774 -330.732704 
L 248.009137 -330.732704 
L 254.521499 -330.732704 
L 261.033861 -330.732704 
L 267.546223 -330.732704 
L 274.058586 -330.732704 
L 280.570948 -330.732704 
L 287.08331 -330.732704 
L 293.595672 -330.732704 
L 300.108035 -330.732704 
L 306.620397 -330.732704 
L 313.132759 -330.732704 
L 319.645121 -330.732704 
L 326.157484 -330.732704 
L 332.669846 -330.732704 
L 339.182208 -330.732704 
L 345.69457 -330.732704 
L 352.532551 -330.732704 
L 359.044913 -330.732704 
L 365.557275 -330.732704 
L 372.069637 -330.732704 
L 378.582 -330.732704 
L 385.094362 -330.732704 
L 391.606724 -330.732704 
L 398.119086 -330.732704 
L 404.631449 -330.732704 
L 411.143811 -330.732704 
L 417.656173 -330.732704 
L 424.168535 -330.732704 
L 430.680898 -330.732704 
L 437.19326 -330.732704 
L 443.705622 -330.732704 
L 450.217984 -330.732704 
L 456.730347 -330.732704 
L 463.242709 -330.732704 
L 469.755071 -330.732704 
L 476.267433 -330.732704 
L 482.779796 -330.732704 
L 489.292158 -330.732704 
L 496.130138 -330.732704 
L 502.642501 -330.732704 
L 509.154863 -330.732704 
L 515.667225 -330.732704 
L 522.179587 -330.732704 
L 528.69195 -330.732704 
L 535.204312 -330.732704 
L 541.716674 -330.732704 
L 548.229036 -330.732704 
L 554.741399 -330.732704 
L 561.253761 -330.732704 
L 567.766123 -330.732704 
L 574.278485 -330.732704 
L 580.790848 -330.732704 
L 587.30321 -330.732704 
L 593.815572 -330.732704 
L 600.327934 -330.732704 
L 606.840297 -330.732704 
L 613.352659 -330.732704 
L 619.865021 -330.732704 
L 626.377383 -330.732704 
L 632.889745 -330.732704 
L 639.402108 -330.732704 
L 645.91447 -330.732704 
L 652.426832 -330.732704 
L 658.939194 -330.732704 
L 665.451557 -330.732704 
L 671.963919 -330.732704 
L 678.476281 -330.732704 
L 684.988643 -330.732704 
L 692.434444 -330.732704 
L 699.31584 -330.732704 
L 705.828203 -330.732704 
L 712.340565 -330.732704 
L 718.852927 -330.732704 
L 725.365289 -330.732704 
L 731.877652 -330.732704 
L 738.390014 -330.732704 
L 744.902376 -330.732704 
L 751.414738 -330.732704 
L 757.927101 -330.732704 
L 764.439463 -330.732704 
L 770.951825 -330.732704 
L 777.464187 -330.732704 
L 783.97655 -330.732704 
L 790.488912 -330.732704 
L 797.001274 -330.732704 
L 803.513636 -330.732704 
L 810.025999 -330.732704 
L 816.538361 -330.732704 
L 823.050723 -330.732704 
L 829.563085 -330.732704 
L 836.075448 -330.732704 
L 836.075448 -429.172956 
L 836.075448 -429.172956 
L 829.563085 -429.172956 
L 823.050723 -429.172956 
L 816.538361 -429.172956 
L 810.025999 -429.172956 
L 803.513636 -429.172956 
L 797.001274 -429.172956 
L 790.488912 -429.172956 
L 783.97655 -429.172956 
L 777.464187 -429.172956 
L 770.951825 -429.172956 
L 764.439463 -429.172956 
L 757.927101 -429.172956 
L 751.414738 -429.172956 
L 744.902376 -429.172956 
L 738.390014 -429.172956 
L 731.877652 -429.172956 
L 725.365289 -429.172956 
L 718.852927 -429.172956 
L 712.340565 -429.172956 
L 705.828203 -429.172956 
L 699.31584 -429.172956 
L 692.434444 -429.172956 
L 684.988643 -429.172956 
L 678.476281 -429.172956 
L 671.963919 -429.172956 
L 665.451557 -429.172956 
L 658.939194 -429.172956 
L 652.426832 -429.172956 
L 645.91447 -429.172956 
L 639.402108 -429.172956 
L 632.889745 -429.172956 
L 626.377383 -429.172956 
L 619.865021 -429.172956 
L 613.352659 -429.172956 
L 606.840297 -429.172956 
L 600.327934 -429.172956 
L 593.815572 -429.172956 
L 587.30321 -429.172956 
L 580.790848 -429.172956 
L 574.278485 -429.172956 
L 567.766123 -429.172956 
L 561.253761 -429.172956 
L 554.741399 -429.172956 
L 548.229036 -429.172956 
L 541.716674 -429.172956 
L 535.204312 -429.172956 
L 528.69195 -429.172956 
L 522.179587 -429.172956 
L 515.667225 -429.172956 
L 509.154863 -429.172956 
L 502.642501 -429.172956 
L 496.130138 -429.172956 
L 489.292158 -429.172956 
L 482.779796 -429.172956 
L 476.267433 -429.172956 
L 469.755071 -429.172956 
L 463.242709 -429.172956 
L 456.730347 -429.172956 
L 450.217984 -429.172956 
L 443.705622 -429.172956 
L 437.19326 -429.172956 
L 430.680898 -429.172956 
L 424.168535 -429.172956 
L 417.656173 -429.172956 
L 411.143811 -429.172956 
L 404.631449 -429.172956 
L 398.119086 -429.172956 
L 391.606724 -429.172956 
L 385.094362 -429.172956 
L 378.582 -429.172956 
L 372.069637 -429.172956 
L 365.557275 -429.172956 
L 359.044913 -429.172956 
L 352.532551 -429.172956 
L 345.69457 -429.172956 
L 339.182208 -429.172956 
L 332.669846 -429.172956 
L 326.157484 -429.172956 
L 319.645121 -429.172956 
L 313.132759 -429.172956 
L 306.620397 -429.172956 
L 300.108035 -429.172956 
L 293.595672 -429.172956 
L 287.08331 -429.172956 
L 280.570948 -429.172956 
L 274.058586 -429.172956 
L 267.546223 -429.172956 
L 261.033861 -429.172956 
L 254.521499 -429.172956 
L 248.009137 -429.172956 
L 241.496774 -429.172956 
L 234.984412 -429.172956 
L 228.103016 -429.172956 
L 220.657215 -429.172956 
L 214.144853 -429.172956 
L 207.632491 -429.172956 
L 201.120129 -429.172956 
L 194.607766 -429.172956 
L 188.095404 -429.172956 
L 181.583042 -429.172956 
L 175.07068 -429.172956 
L 168.558317 -429.172956 
L 162.045955 -429.172956 
L 155.533593 -429.172956 
L 149.021231 -429.172956 
z
" style="stroke: #ff0000; stroke-opacity: 0.05"/>
    </defs>
    <g clip-path="url(#pcd6466ff05)">
     <use xlink:href="#mce098603d9" x="0" y="864" style="fill: #ff0000; fill-opacity: 0.05; stroke: #ff0000; stroke-opacity: 0.05"/>
    </g>
   </g>
   <g id="FillBetweenPolyCollection_3"/>
   <g id="FillBetweenPolyCollection_4">
    <defs>
     <path id="m5338267796" d="M 149.021231 -527.613208 
L 149.021231 -429.172956 
L 155.533593 -429.172956 
L 162.045955 -429.172956 
L 168.558317 -429.172956 
L 175.07068 -429.172956 
L 181.583042 -429.172956 
L 188.095404 -429.172956 
L 194.607766 -429.172956 
L 201.120129 -429.172956 
L 207.632491 -429.172956 
L 214.144853 -429.172956 
L 220.657215 -429.172956 
L 228.103016 -429.172956 
L 234.984412 -429.172956 
L 241.496774 -429.172956 
L 248.009137 -429.172956 
L 254.521499 -429.172956 
L 261.033861 -429.172956 
L 267.546223 -429.172956 
L 274.058586 -429.172956 
L 280.570948 -429.172956 
L 287.08331 -429.172956 
L 293.595672 -429.172956 
L 300.108035 -429.172956 
L 306.620397 -429.172956 
L 313.132759 -429.172956 
L 319.645121 -429.172956 
L 326.157484 -429.172956 
L 332.669846 -429.172956 
L 339.182208 -429.172956 
L 345.69457 -429.172956 
L 352.532551 -429.172956 
L 359.044913 -429.172956 
L 365.557275 -429.172956 
L 372.069637 -429.172956 
L 378.582 -429.172956 
L 385.094362 -429.172956 
L 391.606724 -429.172956 
L 398.119086 -429.172956 
L 404.631449 -429.172956 
L 411.143811 -429.172956 
L 417.656173 -429.172956 
L 424.168535 -429.172956 
L 430.680898 -429.172956 
L 437.19326 -429.172956 
L 443.705622 -429.172956 
L 450.217984 -429.172956 
L 456.730347 -429.172956 
L 463.242709 -429.172956 
L 469.755071 -429.172956 
L 476.267433 -429.172956 
L 482.779796 -429.172956 
L 489.292158 -429.172956 
L 496.130138 -429.172956 
L 502.642501 -429.172956 
L 509.154863 -429.172956 
L 515.667225 -429.172956 
L 522.179587 -429.172956 
L 528.69195 -429.172956 
L 535.204312 -429.172956 
L 541.716674 -429.172956 
L 548.229036 -429.172956 
L 554.741399 -429.172956 
L 561.253761 -429.172956 
L 567.766123 -429.172956 
L 574.278485 -429.172956 
L 580.790848 -429.172956 
L 587.30321 -429.172956 
L 593.815572 -429.172956 
L 600.327934 -429.172956 
L 606.840297 -429.172956 
L 613.352659 -429.172956 
L 619.865021 -429.172956 
L 626.377383 -429.172956 
L 632.889745 -429.172956 
L 639.402108 -429.172956 
L 645.91447 -429.172956 
L 652.426832 -429.172956 
L 658.939194 -429.172956 
L 665.451557 -429.172956 
L 671.963919 -429.172956 
L 678.476281 -429.172956 
L 684.988643 -429.172956 
L 692.434444 -429.172956 
L 699.31584 -429.172956 
L 705.828203 -429.172956 
L 712.340565 -429.172956 
L 718.852927 -429.172956 
L 725.365289 -429.172956 
L 731.877652 -429.172956 
L 738.390014 -429.172956 
L 744.902376 -429.172956 
L 751.414738 -429.172956 
L 757.927101 -429.172956 
L 764.439463 -429.172956 
L 770.951825 -429.172956 
L 777.464187 -429.172956 
L 783.97655 -429.172956 
L 790.488912 -429.172956 
L 797.001274 -429.172956 
L 803.513636 -429.172956 
L 810.025999 -429.172956 
L 816.538361 -429.172956 
L 823.050723 -429.172956 
L 829.563085 -429.172956 
L 836.075448 -429.172956 
L 836.075448 -527.613208 
L 836.075448 -527.613208 
L 829.563085 -527.613208 
L 823.050723 -527.613208 
L 816.538361 -527.613208 
L 810.025999 -527.613208 
L 803.513636 -527.613208 
L 797.001274 -527.613208 
L 790.488912 -527.613208 
L 783.97655 -527.613208 
L 777.464187 -527.613208 
L 770.951825 -527.613208 
L 764.439463 -527.613208 
L 757.927101 -527.613208 
L 751.414738 -527.613208 
L 744.902376 -527.613208 
L 738.390014 -527.613208 
L 731.877652 -527.613208 
L 725.365289 -527.613208 
L 718.852927 -527.613208 
L 712.340565 -527.613208 
L 705.828203 -527.613208 
L 699.31584 -527.613208 
L 692.434444 -527.613208 
L 684.988643 -527.613208 
L 678.476281 -527.613208 
L 671.963919 -527.613208 
L 665.451557 -527.613208 
L 658.939194 -527.613208 
L 652.426832 -527.613208 
L 645.91447 -527.613208 
L 639.402108 -527.613208 
L 632.889745 -527.613208 
L 626.377383 -527.613208 
L 619.865021 -527.613208 
L 613.352659 -527.613208 
L 606.840297 -527.613208 
L 600.327934 -527.613208 
L 593.815572 -527.613208 
L 587.30321 -527.613208 
L 580.790848 -527.613208 
L 574.278485 -527.613208 
L 567.766123 -527.613208 
L 561.253761 -527.613208 
L 554.741399 -527.613208 
L 548.229036 -527.613208 
L 541.716674 -527.613208 
L 535.204312 -527.613208 
L 528.69195 -527.613208 
L 522.179587 -527.613208 
L 515.667225 -527.613208 
L 509.154863 -527.613208 
L 502.642501 -527.613208 
L 496.130138 -527.613208 
L 489.292158 -527.613208 
L 482.779796 -527.613208 
L 476.267433 -527.613208 
L 469.755071 -527.613208 
L 463.242709 -527.613208 
L 456.730347 -527.613208 
L 450.217984 -527.613208 
L 443.705622 -527.613208 
L 437.19326 -527.613208 
L 430.680898 -527.613208 
L 424.168535 -527.613208 
L 417.656173 -527.613208 
L 411.143811 -527.613208 
L 404.631449 -527.613208 
L 398.119086 -527.613208 
L 391.606724 -527.613208 
L 385.094362 -527.613208 
L 378.582 -527.613208 
L 372.069637 -527.613208 
L 365.557275 -527.613208 
L 359.044913 -527.613208 
L 352.532551 -527.613208 
L 345.69457 -527.613208 
L 339.182208 -527.613208 
L 332.669846 -527.613208 
L 326.157484 -527.613208 
L 319.645121 -527.613208 
L 313.132759 -527.613208 
L 306.620397 -527.613208 
L 300.108035 -527.613208 
L 293.595672 -527.613208 
L 287.08331 -527.613208 
L 280.570948 -527.613208 
L 274.058586 -527.613208 
L 267.546223 -527.613208 
L 261.033861 -527.613208 
L 254.521499 -527.613208 
L 248.009137 -527.613208 
L 241.496774 -527.613208 
L 234.984412 -527.613208 
L 228.103016 -527.613208 
L 220.657215 -527.613208 
L 214.144853 -527.613208 
L 207.632491 -527.613208 
L 201.120129 -527.613208 
L 194.607766 -527.613208 
L 188.095404 -527.613208 
L 181.583042 -527.613208 
L 175.07068 -527.613208 
L 168.558317 -527.613208 
L 162.045955 -527.613208 
L 155.533593 -527.613208 
L 149.021231 -527.613208 
z
" style="stroke: #ffa500; stroke-opacity: 0.05"/>
    </defs>
    <g clip-path="url(#pcd6466ff05)">
     <use xlink:href="#m5338267796" x="0" y="864" style="fill: #ffa500; fill-opacity: 0.05; stroke: #ffa500; stroke-opacity: 0.05"/>
    </g>
   </g>
   <g id="matplotlib.axis_1">
    <g id="xtick_1">
     <g id="line2d_1">
      <path d="M 66.542163 548.033333 
L 66.542163 26.3 
" clip-path="url(#pcd6466ff05)" style="fill: none; stroke-dasharray: 2.96,1.28; stroke-dashoffset: 0; stroke: #b0b0b0; stroke-opacity: 0.4; stroke-width: 0.8"/>
     </g>
     <g id="line2d_2">
      <defs>
       <path id="ma05d95eb64" d="M 0 0 
L 0 3.5 
" style="stroke: #000000; stroke-width: 0.8"/>
      </defs>
      <g>
       <use xlink:href="#ma05d95eb64" x="66.542163" y="548.033333" style="stroke: #000000; stroke-width: 0.8"/>
      </g>
     </g>
    </g>
    <g id="xtick_2">
     <g id="line2d_3">
      <path d="M 300.987204 548.033333 
L 300.987204 26.3 
" clip-path="url(#pcd6466ff05)" style="fill: none; stroke-dasharray: 2.96,1.28; stroke-dashoffset: 0; stroke: #b0b0b0; stroke-opacity: 0.4; stroke-width: 0.8"/>
     </g>
     <g id="line2d_4">
      <g>
       <use xlink:href="#ma05d95eb64" x="300.987204" y="548.033333" style="stroke: #000000; stroke-width: 0.8"/>
      </g>
     </g>
    </g>
    <g id="xtick_3">
     <g id="line2d_5">
      <path d="M 535.432244 548.033333 
L 535.432244 26.3 
" clip-path="url(#pcd6466ff05)" style="fill: none; stroke-dasharray: 2.96,1.28; stroke-dashoffset: 0; stroke: #b0b0b0; stroke-opacity: 0.4; stroke-width: 0.8"/>
     </g>
     <g id="line2d_6">
      <g>
       <use xlink:href="#ma05d95eb64" x="535.432244" y="548.033333" style="stroke: #000000; stroke-width: 0.8"/>
      </g>
     </g>
    </g>
    <g id="xtick_4">
     <g id="line2d_7">
      <path d="M 769.877285 548.033333 
L 769.877285 26.3 
" clip-path="url(#pcd6466ff05)" style="fill: none; stroke-dasharray: 2.96,1.28; stroke-dashoffset: 0; stroke: #b0b0b0; stroke-opacity: 0.4; stroke-width: 0.8"/>
     </g>
     <g id="line2d_8">
      <g>
       <use xlink:href="#ma05d95eb64" x="769.877285" y="548.033333" style="stroke: #000000; stroke-width: 0.8"/>
      </g>
     </g>
    </g>
    <g id="xtick_5">
     <g id="line2d_9">
      <path d="M 1004.322326 548.033333 
L 1004.322326 26.3 
" clip-path="url(#pcd6466ff05)" style="fill: none; stroke-dasharray: 2.96,1.28; stroke-dashoffset: 0; stroke: #b0b0b0; stroke-opacity: 0.4; stroke-width: 0.8"/>
     </g>
     <g id="line2d_10">
      <g>
       <use xlink:href="#ma05d95eb64" x="1004.322326" y="548.033333" style="stroke: #000000; stroke-width: 0.8"/>
      </g>
     </g>
    </g>
    <g id="xtick_6">
     <g id="line2d_11">
      <path d="M 1238.767367 548.033333 
L 1238.767367 26.3 
" clip-path="url(#pcd6466ff05)" style="fill: none; stroke-dasharray: 2.96,1.28; stroke-dashoffset: 0; stroke: #b0b0b0; stroke-opacity: 0.4; stroke-width: 0.8"/>
     </g>
     <g id="line2d_12">
      <g>
       <use xlink:href="#ma05d95eb64" x="1238.767367" y="548.033333" style="stroke: #000000; stroke-width: 0.8"/>
      </g>
     </g>
    </g>
    <g id="xtick_7">
     <g id="line2d_13">
      <path d="M 1473.212408 548.033333 
L 1473.212408 26.3 
" clip-path="url(#pcd6466ff05)" style="fill: none; stroke-dasharray: 2.96,1.28; stroke-dashoffset: 0; stroke: #b0b0b0; stroke-opacity: 0.4; stroke-width: 0.8"/>
     </g>
     <g id="line2d_14">
      <g>
       <use xlink:href="#ma05d95eb64" x="1473.212408" y="548.033333" style="stroke: #000000; stroke-width: 0.8"/>
      </g>
     </g>
    </g>
    <g id="xtick_8">
     <g id="line2d_15">
      <path d="M 1707.657449 548.033333 
L 1707.657449 26.3 
" clip-path="url(#pcd6466ff05)" style="fill: none; stroke-dasharray: 2.96,1.28; stroke-dashoffset: 0; stroke: #b0b0b0; stroke-opacity: 0.4; stroke-width: 0.8"/>
     </g>
     <g id="line2d_16">
      <g>
       <use xlink:href="#ma05d95eb64" x="1707.657449" y="548.033333" style="stroke: #000000; stroke-width: 0.8"/>
      </g>
     </g>
    </g>
    <g id="xtick_9">
     <g id="line2d_17">
      <path d="M 1942.10249 548.033333 
L 1942.10249 26.3 
" clip-path="url(#pcd6466ff05)" style="fill: none; stroke-dasharray: 2.96,1.28; stroke-dashoffset: 0; stroke: #b0b0b0; stroke-opacity: 0.4; stroke-width: 0.8"/>
     </g>
     <g id="line2d_18">
      <g>
       <use xlink:href="#ma05d95eb64" x="1942.10249" y="548.033333" style="stroke: #000000; stroke-width: 0.8"/>
      </g>
     </g>
    </g>
   </g>
   <g id="matplotlib.axis_2">
    <g id="ytick_1">
     <g id="line2d_19">
      <path d="M 53.55 533.267296 
L 2115.95 533.267296 
" clip-path="url(#pcd6466ff05)" style="fill: none; stroke: #b0b0b0; stroke-opacity: 0.25; stroke-width: 0.8; stroke-linecap: square"/>
     </g>
     <g id="line2d_20">
      <defs>
       <path id="mce52e9632a" d="M 0 0 
L -3.5 0 
" style="stroke: #000000; stroke-width: 0.8"/>
      </defs>
      <g>
       <use xlink:href="#mce52e9632a" x="53.55" y="533.267296" style="stroke: #000000; stroke-width: 0.8"/>
      </g>
     </g>
     <g id="text_1">
      <!-- 0 -->
      <g transform="translate(40.1875 537.066514) scale(0.1 -0.1)">
       <defs>
        <path id="DejaVuSans-30" d="M 2034 4250 
Q 1547 4250 1301 3770 
Q 1056 3291 1056 2328 
Q 1056 1369 1301 889 
Q 1547 409 2034 409 
Q 2525 409 2770 889 
Q 3016 1369 3016 2328 
Q 3016 3291 2770 3770 
Q 2525 4250 2034 4250 
z
M 2034 4750 
Q 2819 4750 3233 4129 
Q 3647 3509 3647 2328 
Q 3647 1150 3233 529 
Q 2819 -91 2034 -91 
Q 1250 -91 836 529 
Q 422 1150 422 2328 
Q 422 3509 836 4129 
Q 1250 4750 2034 4750 
z
" transform="scale(0.015625)"/>
       </defs>
       <use xlink:href="#DejaVuSans-30"/>
      </g>
     </g>
    </g>
    <g id="ytick_2">
     <g id="line2d_21">
      <path d="M 53.55 434.827044 
L 2115.95 434.827044 
" clip-path="url(#pcd6466ff05)" style="fill: none; stroke: #b0b0b0; stroke-opacity: 0.25; stroke-width: 0.8; stroke-linecap: square"/>
     </g>
     <g id="line2d_22">
      <g>
       <use xlink:href="#mce52e9632a" x="53.55" y="434.827044" style="stroke: #000000; stroke-width: 0.8"/>
      </g>
     </g>
     <g id="text_2">
      <!-- 20 -->
      <g transform="translate(33.825 438.626263) scale(0.1 -0.1)">
       <defs>
        <path id="DejaVuSans-32" d="M 1228 531 
L 3431 531 
L 3431 0 
L 469 0 
L 469 531 
Q 828 903 1448 1529 
Q 2069 2156 2228 2338 
Q 2531 2678 2651 2914 
Q 2772 3150 2772 3378 
Q 2772 3750 2511 3984 
Q 2250 4219 1831 4219 
Q 1534 4219 1204 4116 
Q 875 4013 500 3803 
L 500 4441 
Q 881 4594 1212 4672 
Q 1544 4750 1819 4750 
Q 2544 4750 2975 4387 
Q 3406 4025 3406 3419 
Q 3406 3131 3298 2873 
Q 3191 2616 2906 2266 
Q 2828 2175 2409 1742 
Q 1991 1309 1228 531 
z
" transform="scale(0.015625)"/>
       </defs>
       <use xlink:href="#DejaVuSans-32"/>
       <use xlink:href="#DejaVuSans-30" transform="translate(63.623047 0)"/>
      </g>
     </g>
    </g>
    <g id="ytick_3">
     <g id="line2d_23">
      <path d="M 53.55 336.386792 
L 2115.95 336.386792 
" clip-path="url(#pcd6466ff05)" style="fill: none; stroke: #b0b0b0; stroke-opacity: 0.25; stroke-width: 0.8; stroke-linecap: square"/>
     </g>
     <g id="line2d_24">
      <g>
       <use xlink:href="#mce52e9632a" x="53.55" y="336.386792" style="stroke: #000000; stroke-width: 0.8"/>
      </g>
     </g>
     <g id="text_3">
      <!-- 40 -->
      <g transform="translate(33.825 340.186011) scale(0.1 -0.1)">
       <defs>
        <path id="DejaVuSans-34" d="M 2419 4116 
L 825 1625 
L 2419 1625 
L 2419 4116 
z
M 2253 4666 
L 3047 4666 
L 3047 1625 
L 3713 1625 
L 3713 1100 
L 3047 1100 
L 3047 0 
L 2419 0 
L 2419 1100 
L 313 1100 
L 313 1709 
L 2253 4666 
z
" transform="scale(0.015625)"/>
       </defs>
       <use xlink:href="#DejaVuSans-34"/>
       <use xlink:href="#DejaVuSans-30" transform="translate(63.623047 0)"/>
      </g>
     </g>
    </g>
    <g id="ytick_4">
     <g id="line2d_25">
      <path d="M 53.55 237.946541 
L 2115.95 237.946541 
" clip-path="url(#pcd6466ff05)" style="fill: none; stroke: #b0b0b0; stroke-opacity: 0.25; stroke-width: 0.8; stroke-linecap: square"/>
     </g>
     <g id="line2d_26">
      <g>
       <use xlink:href="#mce52e9632a" x="53.55" y="237.946541" style="stroke: #000000; stroke-width: 0.8"/>
      </g>
     </g>
     <g id="text_4">
      <!-- 60 -->
      <g transform="translate(33.825 241.74576) scale(0.1 -0.1)">
       <defs>
        <path id="DejaVuSans-36" d="M 2113 2584 
Q 1688 2584 1439 2293 
Q 1191 2003 1191 1497 
Q 1191 994 1439 701 
Q 1688 409 2113 409 
Q 2538 409 2786 701 
Q 3034 994 3034 1497 
Q 3034 2003 2786 2293 
Q 2538 2584 2113 2584 
z
M 3366 4563 
L 3366 3988 
Q 3128 4100 2886 4159 
Q 2644 4219 2406 4219 
Q 1781 4219 1451 3797 
Q 1122 3375 1075 2522 
Q 1259 2794 1537 2939 
Q 1816 3084 2150 3084 
Q 2853 3084 3261 2657 
Q 3669 2231 3669 1497 
Q 3669 778 3244 343 
Q 2819 -91 2113 -91 
Q 1303 -91 875 529 
Q 447 1150 447 2328 
Q 447 3434 972 4092 
Q 1497 4750 2381 4750 
Q 2619 4750 2861 4703 
Q 3103 4656 3366 4563 
z
" transform="scale(0.015625)"/>
       </defs>
       <use xlink:href="#DejaVuSans-36"/>
       <use xlink:href="#DejaVuSans-30" transform="translate(63.623047 0)"/>
      </g>
     </g>
    </g>
    <g id="ytick_5">
     <g id="line2d_27">
      <path d="M 53.55 139.506289 
L 2115.95 139.506289 
" clip-path="url(#pcd6466ff05)" style="fill: none; stroke: #b0b0b0; stroke-opacity: 0.25; stroke-width: 0.8; stroke-linecap: square"/>
     </g>
     <g id="line2d_28">
      <g>
       <use xlink:href="#mce52e9632a" x="53.55" y="139.506289" style="stroke: #000000; stroke-width: 0.8"/>
      </g>
     </g>
     <g id="text_5">
      <!-- 80 -->
      <g transform="translate(33.825 143.305508) scale(0.1 -0.1)">
       <defs>
        <path id="DejaVuSans-38" d="M 2034 2216 
Q 1584 2216 1326 1975 
Q 1069 1734 1069 1313 
Q 1069 891 1326 650 
Q 1584 409 2034 409 
Q 2484 409 2743 651 
Q 3003 894 3003 1313 
Q 3003 1734 2745 1975 
Q 2488 2216 2034 2216 
z
M 1403 2484 
Q 997 2584 770 2862 
Q 544 3141 544 3541 
Q 544 4100 942 4425 
Q 1341 4750 2034 4750 
Q 2731 4750 3128 4425 
Q 3525 4100 3525 3541 
Q 3525 3141 3298 2862 
Q 3072 2584 2669 2484 
Q 3125 2378 3379 2068 
Q 3634 1759 3634 1313 
Q 3634 634 3220 271 
Q 2806 -91 2034 -91 
Q 1263 -91 848 271 
Q 434 634 434 1313 
Q 434 1759 690 2068 
Q 947 2378 1403 2484 
z
M 1172 3481 
Q 1172 3119 1398 2916 
Q 1625 2713 2034 2713 
Q 2441 2713 2670 2916 
Q 2900 3119 2900 3481 
Q 2900 3844 2670 4047 
Q 2441 4250 2034 4250 
Q 1625 4250 1398 4047 
Q 1172 3844 1172 3481 
z
" transform="scale(0.015625)"/>
       </defs>
       <use xlink:href="#DejaVuSans-38"/>
       <use xlink:href="#DejaVuSans-30" transform="translate(63.623047 0)"/>
      </g>
     </g>
    </g>
    <g id="ytick_6">
     <g id="line2d_29">
      <path d="M 53.55 41.066038 
L 2115.95 41.066038 
" clip-path="url(#pcd6466ff05)" style="fill: none; stroke: #b0b0b0; stroke-opacity: 0.25; stroke-width: 0.8; stroke-linecap: square"/>
     </g>
     <g id="line2d_30">
      <g>
       <use xlink:href="#mce52e9632a" x="53.55" y="41.066038" style="stroke: #000000; stroke-width: 0.8"/>
      </g>
     </g>
     <g id="text_6">
      <!-- 100 -->
      <g transform="translate(27.4625 44.865256) scale(0.1 -0.1)">
       <defs>
        <path id="DejaVuSans-31" d="M 794 531 
L 1825 531 
L 1825 4091 
L 703 3866 
L 703 4441 
L 1819 4666 
L 2450 4666 
L 2450 531 
L 3481 531 
L 3481 0 
L 794 0 
L 794 531 
z
" transform="scale(0.015625)"/>
       </defs>
       <use xlink:href="#DejaVuSans-31"/>
       <use xlink:href="#DejaVuSans-30" transform="translate(63.623047 0)"/>
       <use xlink:href="#DejaVuSans-30" transform="translate(127.246094 0)"/>
      </g>
     </g>
    </g>
    <g id="text_7">
     <!-- Battery (%) -->
     <g transform="translate(21.382812 315.914323) rotate(-90) scale(0.1 -0.1)">
      <defs>
       <path id="DejaVuSans-42" d="M 1259 2228 
L 1259 519 
L 2272 519 
Q 2781 519 3026 730 
Q 3272 941 3272 1375 
Q 3272 1813 3026 2020 
Q 2781 2228 2272 2228 
L 1259 2228 
z
M 1259 4147 
L 1259 2741 
L 2194 2741 
Q 2656 2741 2882 2914 
Q 3109 3088 3109 3444 
Q 3109 3797 2882 3972 
Q 2656 4147 2194 4147 
L 1259 4147 
z
M 628 4666 
L 2241 4666 
Q 2963 4666 3353 4366 
Q 3744 4066 3744 3513 
Q 3744 3084 3544 2831 
Q 3344 2578 2956 2516 
Q 3422 2416 3680 2098 
Q 3938 1781 3938 1306 
Q 3938 681 3513 340 
Q 3088 0 2303 0 
L 628 0 
L 628 4666 
z
" transform="scale(0.015625)"/>
       <path id="DejaVuSans-61" d="M 2194 1759 
Q 1497 1759 1228 1600 
Q 959 1441 959 1056 
Q 959 750 1161 570 
Q 1363 391 1709 391 
Q 2188 391 2477 730 
Q 2766 1069 2766 1631 
L 2766 1759 
L 2194 1759 
z
M 3341 1997 
L 3341 0 
L 2766 0 
L 2766 531 
Q 2569 213 2275 61 
Q 1981 -91 1556 -91 
Q 1019 -91 701 211 
Q 384 513 384 1019 
Q 384 1609 779 1909 
Q 1175 2209 1959 2209 
L 2766 2209 
L 2766 2266 
Q 2766 2663 2505 2880 
Q 2244 3097 1772 3097 
Q 1472 3097 1187 3025 
Q 903 2953 641 2809 
L 641 3341 
Q 956 3463 1253 3523 
Q 1550 3584 1831 3584 
Q 2591 3584 2966 3190 
Q 3341 2797 3341 1997 
z
" transform="scale(0.015625)"/>
       <path id="DejaVuSans-74" d="M 1172 4494 
L 1172 3500 
L 2356 3500 
L 2356 3053 
L 1172 3053 
L 1172 1153 
Q 1172 725 1289 603 
Q 1406 481 1766 481 
L 2356 481 
L 2356 0 
L 1766 0 
Q 1100 0 847 248 
Q 594 497 594 1153 
L 594 3053 
L 172 3053 
L 172 3500 
L 594 3500 
L 594 4494 
L 1172 4494 
z
" transform="scale(0.015625)"/>
       <path id="DejaVuSans-65" d="M 3597 1894 
L 3597 1613 
L 953 1613 
Q 991 1019 1311 708 
Q 1631 397 2203 397 
Q 2534 397 2845 478 
Q 3156 559 3463 722 
L 3463 178 
Q 3153 47 2828 -22 
Q 2503 -91 2169 -91 
Q 1331 -91 842 396 
Q 353 884 353 1716 
Q 353 2575 817 3079 
Q 1281 3584 2069 3584 
Q 2775 3584 3186 3129 
Q 3597 2675 3597 1894 
z
M 3022 2063 
Q 3016 2534 2758 2815 
Q 2500 3097 2075 3097 
Q 1594 3097 1305 2825 
Q 1016 2553 972 2059 
L 3022 2063 
z
" transform="scale(0.015625)"/>
       <path id="DejaVuSans-72" d="M 2631 2963 
Q 2534 3019 2420 3045 
Q 2306 3072 2169 3072 
Q 1681 3072 1420 2755 
Q 1159 2438 1159 1844 
L 1159 0 
L 581 0 
L 581 3500 
L 1159 3500 
L 1159 2956 
Q 1341 3275 1631 3429 
Q 1922 3584 2338 3584 
Q 2397 3584 2469 3576 
Q 2541 3569 2628 3553 
L 2631 2963 
z
" transform="scale(0.015625)"/>
       <path id="DejaVuSans-79" d="M 2059 -325 
Q 1816 -950 1584 -1140 
Q 1353 -1331 966 -1331 
L 506 -1331 
L 506 -850 
L 844 -850 
Q 1081 -850 1212 -737 
Q 1344 -625 1503 -206 
L 1606 56 
L 191 3500 
L 800 3500 
L 1894 763 
L 2988 3500 
L 3597 3500 
L 2059 -325 
z
" transform="scale(0.015625)"/>
       <path id="DejaVuSans-20" transform="scale(0.015625)"/>
       <path id="DejaVuSans-28" d="M 1984 4856 
Q 1566 4138 1362 3434 
Q 1159 2731 1159 2009 
Q 1159 1288 1364 580 
Q 1569 -128 1984 -844 
L 1484 -844 
Q 1016 -109 783 600 
Q 550 1309 550 2009 
Q 550 2706 781 3412 
Q 1013 4119 1484 4856 
L 1984 4856 
z
" transform="scale(0.015625)"/>
       <path id="DejaVuSans-25" d="M 4653 2053 
Q 4381 2053 4226 1822 
Q 4072 1591 4072 1178 
Q 4072 772 4226 539 
Q 4381 306 4653 306 
Q 4919 306 5073 539 
Q 5228 772 5228 1178 
Q 5228 1588 5073 1820 
Q 4919 2053 4653 2053 
z
M 4653 2450 
Q 5147 2450 5437 2106 
Q 5728 1763 5728 1178 
Q 5728 594 5436 251 
Q 5144 -91 4653 -91 
Q 4153 -91 3862 251 
Q 3572 594 3572 1178 
Q 3572 1766 3864 2108 
Q 4156 2450 4653 2450 
z
M 1428 4353 
Q 1159 4353 1004 4120 
Q 850 3888 850 3481 
Q 850 3069 1003 2837 
Q 1156 2606 1428 2606 
Q 1700 2606 1854 2837 
Q 2009 3069 2009 3481 
Q 2009 3884 1853 4118 
Q 1697 4353 1428 4353 
z
M 4250 4750 
L 4750 4750 
L 1831 -91 
L 1331 -91 
L 4250 4750 
z
M 1428 4750 
Q 1922 4750 2215 4408 
Q 2509 4066 2509 3481 
Q 2509 2891 2217 2550 
Q 1925 2209 1428 2209 
Q 931 2209 642 2551 
Q 353 2894 353 3481 
Q 353 4063 643 4406 
Q 934 4750 1428 4750 
z
" transform="scale(0.015625)"/>
       <path id="DejaVuSans-29" d="M 513 4856 
L 1013 4856 
Q 1481 4119 1714 3412 
Q 1947 2706 1947 2009 
Q 1947 1309 1714 600 
Q 1481 -109 1013 -844 
L 513 -844 
Q 928 -128 1133 580 
Q 1338 1288 1338 2009 
Q 1338 2731 1133 3434 
Q 928 4138 513 4856 
z
" transform="scale(0.015625)"/>
      </defs>
      <use xlink:href="#DejaVuSans-42"/>
      <use xlink:href="#DejaVuSans-61" transform="translate(68.603516 0)"/>
      <use xlink:href="#DejaVuSans-74" transform="translate(129.882812 0)"/>
      <use xlink:href="#DejaVuSans-74" transform="translate(169.091797 0)"/>
      <use xlink:href="#DejaVuSans-65" transform="translate(208.300781 0)"/>
      <use xlink:href="#DejaVuSans-72" transform="translate(269.824219 0)"/>
      <use xlink:href="#DejaVuSans-79" transform="translate(310.9375 0)"/>
      <use xlink:href="#DejaVuSans-20" transform="translate(370.117188 0)"/>
      <use xlink:href="#DejaVuSans-28" transform="translate(401.904297 0)"/>
      <use xlink:href="#DejaVuSans-25" transform="translate(440.917969 0)"/>
      <use xlink:href="#DejaVuSans-29" transform="translate(535.9375 0)"/>
     </g>
    </g>
   </g>
   <g id="line2d_31">
    <path d="M 149.021231 41.066038 
L 155.533593 41.066038 
L 162.045955 41.066038 
L 168.558317 41.066038 
L 175.07068 41.066038 
L 181.583042 41.066038 
L 188.095404 41.066038 
L 194.607766 41.066038 
L 201.120129 41.066038 
L 207.632491 41.066038 
L 214.144853 41.066038 
L 220.657215 45.98805 
L 228.103016 45.98805 
L 234.984412 45.98805 
L 241.496774 45.98805 
L 248.009137 45.98805 
L 254.521499 45.98805 
L 261.033861 45.98805 
L 267.546223 45.98805 
L 274.058586 45.98805 
L 280.570948 45.98805 
L 287.08331 45.98805 
L 293.595672 45.98805 
L 300.108035 45.98805 
L 306.620397 45.98805 
L 313.132759 45.98805 
L 319.645121 45.98805 
L 326.157484 45.98805 
L 332.669846 45.98805 
L 339.182208 45.98805 
L 345.69457 45.98805 
L 352.532551 45.98805 
L 359.044913 45.98805 
L 365.557275 45.98805 
L 372.069637 45.98805 
L 378.582 45.98805 
L 385.094362 45.98805 
L 391.606724 45.98805 
L 398.119086 45.98805 
L 404.631449 45.98805 
L 411.143811 45.98805 
L 417.656173 45.98805 
L 424.168535 45.98805 
L 430.680898 50.910063 
L 437.19326 50.910063 
L 443.705622 50.910063 
L 450.217984 50.910063 
L 456.730347 50.910063 
L 463.242709 50.910063 
L 469.755071 50.910063 
L 476.267433 50.910063 
L 482.779796 50.910063 
L 489.292158 50.910063 
L 496.130138 50.910063 
L 502.642501 50.910063 
L 509.154863 50.910063 
L 515.667225 50.910063 
L 522.179587 50.910063 
L 528.69195 50.910063 
L 535.204312 50.910063 
L 541.716674 50.910063 
L 548.229036 50.910063 
L 554.741399 50.910063 
L 561.253761 50.910063 
L 567.766123 50.910063 
L 574.278485 50.910063 
L 580.790848 50.910063 
L 587.30321 50.910063 
L 593.815572 50.910063 
L 600.327934 50.910063 
L 606.840297 50.910063 
L 613.352659 50.910063 
L 619.865021 50.910063 
L 626.377383 50.910063 
L 632.889745 50.910063 
L 639.402108 50.910063 
L 645.91447 50.910063 
L 652.426832 50.910063 
L 658.939194 50.910063 
L 665.451557 50.910063 
L 671.963919 50.910063 
L 678.476281 50.910063 
L 684.988643 50.910063 
L 692.434444 50.910063 
L 699.31584 50.910063 
L 705.828203 50.910063 
L 712.340565 50.910063 
L 718.852927 50.910063 
L 725.365289 50.910063 
L 731.877652 50.910063 
L 738.390014 50.910063 
L 744.902376 45.98805 
L 751.414738 45.98805 
L 757.927101 45.98805 
L 764.439463 45.98805 
L 770.951825 45.98805 
L 777.464187 45.98805 
L 783.97655 45.98805 
L 790.488912 45.98805 
L 797.001274 41.066038 
L 803.513636 41.066038 
L 810.025999 41.066038 
L 816.538361 41.066038 
L 823.050723 41.066038 
L 829.563085 41.066038 
L 836.075448 41.066038 
" clip-path="url(#pcd6466ff05)" style="fill: none; stroke: #000000; stroke-width: 1.5; stroke-linecap: square"/>
   </g>
   <g id="line2d_32">
    <path d="M 149.021231 434.827044 
L 836.075448 434.827044 
L 836.075448 434.827044 
" clip-path="url(#pcd6466ff05)" style="fill: none; stroke: #ff0000; stroke-width: 1.2; stroke-linecap: square"/>
   </g>
   <g id="line2d_33">
    <path d="M 149.021231 336.386792 
L 836.075448 336.386792 
L 836.075448 336.386792 
" clip-path="url(#pcd6466ff05)" style="fill: none; stroke: #ffa500; stroke-width: 1.2; stroke-linecap: square"/>
   </g>
   <g id="patch_3">
    <path d="M 53.55 548.033333 
L 53.55 26.3 
" style="fill: none; stroke: #000000; stroke-width: 0.8; stroke-linejoin: miter; stroke-linecap: square"/>
   </g>
   <g id="patch_4">
    <path d="M 2115.95 548.033333 
L 2115.95 26.3 
" style="fill: none; stroke: #000000; stroke-width: 0.8; stroke-linejoin: miter; stroke-linecap: square"/>
   </g>
   <g id="patch_5">
    <path d="M 53.55 548.033333 
L 2115.95 548.033333 
" style="fill: none; stroke: #000000; stroke-width: 0.8; stroke-linejoin: miter; stroke-linecap: square"/>
   </g>
   <g id="patch_6">
    <path d="M 53.55 26.3 
L 2115.95 26.3 
" style="fill: none; stroke: #000000; stroke-width: 0.8; stroke-linejoin: miter; stroke-linecap: square"/>
   </g>
   <g id="text_8">
    <!-- MDV_1 Battery + Tide - Last 2 Days -->
    <g transform="translate(977.454062 20.3) scale(0.12 -0.12)">
     <defs>
      <path id="DejaVuSans-4d" d="M 628 4666 
L 1569 4666 
L 2759 1491 
L 3956 4666 
L 4897 4666 
L 4897 0 
L 4281 0 
L 4281 4097 
L 3078 897 
L 2444 897 
L 1241 4097 
L 1241 0 
L 628 0 
L 628 4666 
z
" transform="scale(0.015625)"/>
      <path id="DejaVuSans-44" d="M 1259 4147 
L 1259 519 
L 2022 519 
Q 2988 519 3436 956 
Q 3884 1394 3884 2338 
Q 3884 3275 3436 3711 
Q 2988 4147 2022 4147 
L 1259 4147 
z
M 628 4666 
L 1925 4666 
Q 3281 4666 3915 4102 
Q 4550 3538 4550 2338 
Q 4550 1131 3912 565 
Q 3275 0 1925 0 
L 628 0 
L 628 4666 
z
" transform="scale(0.015625)"/>
      <path id="DejaVuSans-56" d="M 1831 0 
L 50 4666 
L 709 4666 
L 2188 738 
L 3669 4666 
L 4325 4666 
L 2547 0 
L 1831 0 
z
" transform="scale(0.015625)"/>
      <path id="DejaVuSans-5f" d="M 3263 -1063 
L 3263 -1509 
L -63 -1509 
L -63 -1063 
L 3263 -1063 
z
" transform="scale(0.015625)"/>
      <path id="DejaVuSans-2b" d="M 2944 4013 
L 2944 2272 
L 4684 2272 
L 4684 1741 
L 2944 1741 
L 2944 0 
L 2419 0 
L 2419 1741 
L 678 1741 
L 678 2272 
L 2419 2272 
L 2419 4013 
L 2944 4013 
z
" transform="scale(0.015625)"/>
      <path id="DejaVuSans-54" d="M -19 4666 
L 3928 4666 
L 3928 4134 
L 2272 4134 
L 2272 0 
L 1638 0 
L 1638 4134 
L -19 4134 
L -19 4666 
z
" transform="scale(0.015625)"/>
      <path id="DejaVuSans-69" d="M 603 3500 
L 1178 3500 
L 1178 0 
L 603 0 
L 603 3500 
z
M 603 4863 
L 1178 4863 
L 1178 4134 
L 603 4134 
L 603 4863 
z
" transform="scale(0.015625)"/>
      <path id="DejaVuSans-64" d="M 2906 2969 
L 2906 4863 
L 3481 4863 
L 3481 0 
L 2906 0 
L 2906 525 
Q 2725 213 2448 61 
Q 2172 -91 1784 -91 
Q 1150 -91 751 415 
Q 353 922 353 1747 
Q 353 2572 751 3078 
Q 1150 3584 1784 3584 
Q 2172 3584 2448 3432 
Q 2725 3281 2906 2969 
z
M 947 1747 
Q 947 1113 1208 752 
Q 1469 391 1925 391 
Q 2381 391 2643 752 
Q 2906 1113 2906 1747 
Q 2906 2381 2643 2742 
Q 2381 3103 1925 3103 
Q 1469 3103 1208 2742 
Q 947 2381 947 1747 
z
" transform="scale(0.015625)"/>
      <path id="DejaVuSans-2d" d="M 313 2009 
L 1997 2009 
L 1997 1497 
L 313 1497 
L 313 2009 
z
" transform="scale(0.015625)"/>
      <path id="DejaVuSans-4c" d="M 628 4666 
L 1259 4666 
L 1259 531 
L 3531 531 
L 3531 0 
L 628 0 
L 628 4666 
z
" transform="scale(0.015625)"/>
      <path id="DejaVuSans-73" d="M 2834 3397 
L 2834 2853 
Q 2591 2978 2328 3040 
Q 2066 3103 1784 3103 
Q 1356 3103 1142 2972 
Q 928 2841 928 2578 
Q 928 2378 1081 2264 
Q 1234 2150 1697 2047 
L 1894 2003 
Q 2506 1872 2764 1633 
Q 3022 1394 3022 966 
Q 3022 478 2636 193 
Q 2250 -91 1575 -91 
Q 1294 -91 989 -36 
Q 684 19 347 128 
L 347 722 
Q 666 556 975 473 
Q 1284 391 1588 391 
Q 1994 391 2212 530 
Q 2431 669 2431 922 
Q 2431 1156 2273 1281 
Q 2116 1406 1581 1522 
L 1381 1569 
Q 847 1681 609 1914 
Q 372 2147 372 2553 
Q 372 3047 722 3315 
Q 1072 3584 1716 3584 
Q 2034 3584 2315 3537 
Q 2597 3491 2834 3397 
z
" transform="scale(0.015625)"/>
     </defs>
     <use xlink:href="#DejaVuSans-4d"/>
     <use xlink:href="#DejaVuSans-44" transform="translate(86.279297 0)"/>
     <use xlink:href="#DejaVuSans-56" transform="translate(161.53125 0)"/>
     <use xlink:href="#DejaVuSans-5f" transform="translate(229.939453 0)"/>
     <use xlink:href="#DejaVuSans-31" transform="translate(279.939453 0)"/>
     <use xlink:href="#DejaVuSans-20" transform="translate(343.5625 0)"/>
     <use xlink:href="#DejaVuSans-42" transform="translate(375.349609 0)"/>
     <use xlink:href="#DejaVuSans-61" transform="translate(443.953125 0)"/>
     <use xlink:href="#DejaVuSans-74" transform="translate(505.232422 0)"/>
     <use xlink:href="#DejaVuSans-74" transform="translate(544.441406 0)"/>
     <use xlink:href="#DejaVuSans-65" transform="translate(583.650391 0)"/>
     <use xlink:href="#DejaVuSans-72" transform="translate(645.173828 0)"/>
     <use xlink:href="#DejaVuSans-79" transform="translate(686.287109 0)"/>
     <use xlink:href="#DejaVuSans-20" transform="translate(745.466797 0)"/>
     <use xlink:href="#DejaVuSans-2b" transform="translate(777.253906 0)"/>
     <use xlink:href="#DejaVuSans-20" transform="translate(861.042969 0)"/>
     <use xlink:href="#DejaVuSans-54" transform="translate(892.830078 0)"/>
     <use xlink:href="#DejaVuSans-69" transform="translate(950.789062 0)"/>
     <use xlink:href="#DejaVuSans-64" transform="translate(978.572266 0)"/>
     <use xlink:href="#DejaVuSans-65" transform="translate(1042.048828 0)"/>
     <use xlink:href="#DejaVuSans-20" transform="translate(1103.572266 0)"/>
     <use xlink:href="#DejaVuSans-2d" transform="translate(1135.359375 0)"/>
     <use xlink:href="#DejaVuSans-20" transform="translate(1171.443359 0)"/>
     <use xlink:href="#DejaVuSans-4c" transform="translate(1203.230469 0)"/>
     <use xlink:href="#DejaVuSans-61" transform="translate(1258.943359 0)"/>
     <use xlink:href="#DejaVuSans-73" transform="translate(1320.222656 0)"/>
     <use xlink:href="#DejaVuSans-74" transform="translate(1372.322266 0)"/>
     <use xlink:href="#DejaVuSans-20" transform="translate(1411.53125 0)"/>
     <use xlink:href="#DejaVuSans-32" transform="translate(1443.318359 0)"/>
     <use xlink:href="#DejaVuSans-20" transform="translate(1506.941406 0)"/>
     <use xlink:href="#DejaVuSans-44" transform="translate(1538.728516 0)"/>
     <use xlink:href="#DejaVuSans-61" transform="translate(1615.730469 0)"/>
     <use xlink:href="#DejaVuSans-79" transform="translate(1677.009766 0)"/>
     <use xlink:href="#DejaVuSans-73" transform="translate(1736.189453 0)"/>
    </g>
   </g>
   <g id="legend_1">
    <g id="patch_7">
     <path d="M 60.55 78.334375 
L 150.045313 78.334375 
Q 152.045313 78.334375 152.045313 76.334375 
L 152.045313 33.3 
Q 152.045313 31.3 150.045313 31.3 
L 60.55 31.3 
Q 58.55 31.3 58.55 33.3 
L 58.55 76.334375 
Q 58.55 78.334375 60.55 78.334375 
z
" style="fill: #ffffff; opacity: 0.8; stroke: #cccccc; stroke-linejoin: miter"/>
    </g>
    <g id="line2d_34">
     <path d="M 62.55 39.398437 
L 72.55 39.398437 
L 82.55 39.398437 
" style="fill: none; stroke: #000000; stroke-width: 1.5; stroke-linecap: square"/>
    </g>
    <g id="text_9">
     <!-- Battery (%) -->
     <g transform="translate(90.55 42.898437) scale(0.1 -0.1)">
      <use xlink:href="#DejaVuSans-42"/>
      <use xlink:href="#DejaVuSans-61" transform="translate(68.603516 0)"/>
      <use xlink:href="#DejaVuSans-74" transform="translate(129.882812 0)"/>
      <use xlink:href="#DejaVuSans-74" transform="translate(169.091797 0)"/>
      <use xlink:href="#DejaVuSans-65" transform="translate(208.300781 0)"/>
      <use xlink:href="#DejaVuSans-72" transform="translate(269.824219 0)"/>
      <use xlink:href="#DejaVuSans-79" transform="translate(310.9375 0)"/>
      <use xlink:href="#DejaVuSans-20" transform="translate(370.117188 0)"/>
      <use xlink:href="#DejaVuSans-28" transform="translate(401.904297 0)"/>
      <use xlink:href="#DejaVuSans-25" transform="translate(440.917969 0)"/>
      <use xlink:href="#DejaVuSans-29" transform="translate(535.9375 0)"/>
     </g>
    </g>
    <g id="line2d_35">
     <path d="M 62.55 54.076562 
L 72.55 54.076562 
L 72.55 54.076562 
L 82.55 54.076562 
L 82.55 54.076562 
" style="fill: none; stroke: #ff0000; stroke-width: 1.2; stroke-linecap: square"/>
    </g>
    <g id="text_10">
     <!-- Stop Limit -->
     <g transform="translate(90.55 57.576562) scale(0.1 -0.1)">
      <defs>
       <path id="DejaVuSans-53" d="M 3425 4513 
L 3425 3897 
Q 3066 4069 2747 4153 
Q 2428 4238 2131 4238 
Q 1616 4238 1336 4038 
Q 1056 3838 1056 3469 
Q 1056 3159 1242 3001 
Q 1428 2844 1947 2747 
L 2328 2669 
Q 3034 2534 3370 2195 
Q 3706 1856 3706 1288 
Q 3706 609 3251 259 
Q 2797 -91 1919 -91 
Q 1588 -91 1214 -16 
Q 841 59 441 206 
L 441 856 
Q 825 641 1194 531 
Q 1563 422 1919 422 
Q 2459 422 2753 634 
Q 3047 847 3047 1241 
Q 3047 1584 2836 1778 
Q 2625 1972 2144 2069 
L 1759 2144 
Q 1053 2284 737 2584 
Q 422 2884 422 3419 
Q 422 4038 858 4394 
Q 1294 4750 2059 4750 
Q 2388 4750 2728 4690 
Q 3069 4631 3425 4513 
z
" transform="scale(0.015625)"/>
       <path id="DejaVuSans-6f" d="M 1959 3097 
Q 1497 3097 1228 2736 
Q 959 2375 959 1747 
Q 959 1119 1226 758 
Q 1494 397 1959 397 
Q 2419 397 2687 759 
Q 2956 1122 2956 1747 
Q 2956 2369 2687 2733 
Q 2419 3097 1959 3097 
z
M 1959 3584 
Q 2709 3584 3137 3096 
Q 3566 2609 3566 1747 
Q 3566 888 3137 398 
Q 2709 -91 1959 -91 
Q 1206 -91 779 398 
Q 353 888 353 1747 
Q 353 2609 779 3096 
Q 1206 3584 1959 3584 
z
" transform="scale(0.015625)"/>
       <path id="DejaVuSans-70" d="M 1159 525 
L 1159 -1331 
L 581 -1331 
L 581 3500 
L 1159 3500 
L 1159 2969 
Q 1341 3281 1617 3432 
Q 1894 3584 2278 3584 
Q 2916 3584 3314 3078 
Q 3713 2572 3713 1747 
Q 3713 922 3314 415 
Q 2916 -91 2278 -91 
Q 1894 -91 1617 61 
Q 1341 213 1159 525 
z
M 3116 1747 
Q 3116 2381 2855 2742 
Q 2594 3103 2138 3103 
Q 1681 3103 1420 2742 
Q 1159 2381 1159 1747 
Q 1159 1113 1420 752 
Q 1681 391 2138 391 
Q 2594 391 2855 752 
Q 3116 1113 3116 1747 
z
" transform="scale(0.015625)"/>
       <path id="DejaVuSans-6d" d="M 3328 2828 
Q 3544 3216 3844 3400 
Q 4144 3584 4550 3584 
Q 5097 3584 5394 3201 
Q 5691 2819 5691 2113 
L 5691 0 
L 5113 0 
L 5113 2094 
Q 5113 2597 4934 2840 
Q 4756 3084 4391 3084 
Q 3944 3084 3684 2787 
Q 3425 2491 3425 1978 
L 3425 0 
L 2847 0 
L 2847 2094 
Q 2847 2600 2669 2842 
Q 2491 3084 2119 3084 
Q 1678 3084 1418 2786 
Q 1159 2488 1159 1978 
L 1159 0 
L 581 0 
L 581 3500 
L 1159 3500 
L 1159 2956 
Q 1356 3278 1631 3431 
Q 1906 3584 2284 3584 
Q 2666 3584 2933 3390 
Q 3200 3197 3328 2828 
z
" transform="scale(0.015625)"/>
      </defs>
      <use xlink:href="#DejaVuSans-53"/>
      <use xlink:href="#DejaVuSans-74" transform="translate(63.476562 0)"/>
      <use xlink:href="#DejaVuSans-6f" transform="translate(102.685547 0)"/>
      <use xlink:href="#DejaVuSans-70" transform="translate(163.867188 0)"/>
      <use xlink:href="#DejaVuSans-20" transform="translate(227.34375 0)"/>
      <use xlink:href="#DejaVuSans-4c" transform="translate(259.130859 0)"/>
      <use xlink:href="#DejaVuSans-69" transform="translate(314.84375 0)"/>
      <use xlink:href="#DejaVuSans-6d" transform="translate(342.626953 0)"/>
      <use xlink:href="#DejaVuSans-69" transform="translate(440.039062 0)"/>
      <use xlink:href="#DejaVuSans-74" transform="translate(467.822266 0)"/>
     </g>
    </g>
    <g id="line2d_36">
     <path d="M 62.55 68.754687 
L 72.55 68.754687 
L 72.55 68.754687 
L 82.55 68.754687 
L 82.55 68.754687 
" style="fill: none; stroke: #ffa500; stroke-width: 1.2; stroke-linecap: square"/>
    </g>
    <g id="text_11">
     <!-- Start Limit -->
     <g transform="translate(90.55 72.254687) scale(0.1 -0.1)">
      <use xlink:href="#DejaVuSans-53"/>
      <use xlink:href="#DejaVuSans-74" transform="translate(63.476562 0)"/>
      <use xlink:href="#DejaVuSans-61" transform="translate(102.685547 0)"/>
      <use xlink:href="#DejaVuSans-72" transform="translate(163.964844 0)"/>
      <use xlink:href="#DejaVuSans-74" transform="translate(205.078125 0)"/>
      <use xlink:href="#DejaVuSans-20" transform="translate(244.287109 0)"/>
      <use xlink:href="#DejaVuSans-4c" transform="translate(276.074219 0)"/>
      <use xlink:href="#DejaVuSans-69" transform="translate(331.787109 0)"/>
      <use xlink:href="#DejaVuSans-6d" transform="translate(359.570312 0)"/>
      <use xlink:href="#DejaVuSans-69" transform="translate(456.982422 0)"/>
      <use xlink:href="#DejaVuSans-74" transform="translate(484.765625 0)"/>
     </g>
    </g>
   </g>
  </g>
  <g id="axes_2">
   <g id="patch_8">
    <path d="M 53.55 823.2 
L 2115.95 823.2 
L 2115.95 562.333333 
L 53.55 562.333333 
z
" style="fill: #ffffff"/>
   </g>
   <g id="patch_9">
    <path d="M 227.452549 823.2 
L 227.452549 823.2 
L 227.452549 562.333333 
L 227.452549 562.333333 
z
" clip-path="url(#p7cb55bc296)" style="fill: #800080; stroke: #800080; stroke-linejoin: miter"/>
   </g>
   <g id="patch_10">
    <path d="M 351.856498 823.2 
L 351.856498 823.2 
L 351.856498 562.333333 
L 351.856498 562.333333 
z
" clip-path="url(#p7cb55bc296)" style="fill: #800080; stroke: #800080; stroke-linejoin: miter"/>
   </g>
   <g id="patch_11">
    <path d="M 351.856498 823.2 
L 371.393585 823.2 
L 371.393585 562.333333 
L 351.856498 562.333333 
z
" clip-path="url(#p7cb55bc296)" style="fill: #800080; stroke: #800080; stroke-linejoin: miter"/>
   </g>
   <g id="patch_12">
    <path d="M 351.856498 823.2 
L 390.930672 823.2 
L 390.930672 562.333333 
L 351.856498 562.333333 
z
" clip-path="url(#p7cb55bc296)" style="fill: #800080; stroke: #800080; stroke-linejoin: miter"/>
   </g>
   <g id="patch_13">
    <path d="M 351.856498 823.2 
L 410.467759 823.2 
L 410.467759 562.333333 
L 351.856498 562.333333 
z
" clip-path="url(#p7cb55bc296)" style="fill: #800080; stroke: #800080; stroke-linejoin: miter"/>
   </g>
   <g id="patch_14">
    <path d="M 351.856498 823.2 
L 430.004845 823.2 
L 430.004845 562.333333 
L 351.856498 562.333333 
z
" clip-path="url(#p7cb55bc296)" style="fill: #800080; stroke: #800080; stroke-linejoin: miter"/>
   </g>
   <g id="patch_15">
    <path d="M 351.856498 823.2 
L 449.541932 823.2 
L 449.541932 562.333333 
L 351.856498 562.333333 
z
" clip-path="url(#p7cb55bc296)" style="fill: #800080; stroke: #800080; stroke-linejoin: miter"/>
   </g>
   <g id="patch_16">
    <path d="M 351.856498 823.2 
L 469.079019 823.2 
L 469.079019 562.333333 
L 351.856498 562.333333 
z
" clip-path="url(#p7cb55bc296)" style="fill: #800080; stroke: #800080; stroke-linejoin: miter"/>
   </g>
   <g id="patch_17">
    <path d="M 691.773917 823.2 
L 691.773917 823.2 
L 691.773917 562.333333 
L 691.773917 562.333333 
z
" clip-path="url(#p7cb55bc296)" style="fill: #800080; stroke: #800080; stroke-linejoin: miter"/>
   </g>
   <g id="patch_18">
    <path d="M 225.867105 823.2 
L 232.379467 823.2 
L 232.379467 562.333333 
L 225.867105 562.333333 
z
" clip-path="url(#p7cb55bc296)" style="fill: #90ee90; opacity: 0.25; stroke: #90ee90; stroke-linejoin: miter"/>
   </g>
   <g id="patch_19">
    <path d="M 690.187679 823.2 
L 696.700042 823.2 
L 696.700042 562.333333 
L 690.187679 562.333333 
z
" clip-path="url(#p7cb55bc296)" style="fill: #90ee90; opacity: 0.25; stroke: #90ee90; stroke-linejoin: miter"/>
   </g>
   <g id="patch_20">
    <path d="M 350.253224 823.2 
L 493.525193 823.2 
L 493.525193 562.333333 
L 350.253224 562.333333 
z
" clip-path="url(#p7cb55bc296)" style="fill: #add8e6; opacity: 0.25; stroke: #add8e6; stroke-linejoin: miter"/>
   </g>
   <g id="matplotlib.axis_3">
    <g id="xtick_10">
     <g id="line2d_37">
      <path d="M 66.542163 823.2 
L 66.542163 562.333333 
" clip-path="url(#p7cb55bc296)" style="fill: none; stroke-dasharray: 2.96,1.28; stroke-dashoffset: 0; stroke: #b0b0b0; stroke-opacity: 0.4; stroke-width: 0.8"/>
     </g>
     <g id="line2d_38">
      <g>
       <use xlink:href="#ma05d95eb64" x="66.542163" y="823.2" style="stroke: #000000; stroke-width: 0.8"/>
      </g>
     </g>
     <g id="text_12">
      <!-- 23-May 16:00 -->
      <g transform="translate(32.039819 837.798437) scale(0.1 -0.1)">
       <defs>
        <path id="DejaVuSans-33" d="M 2597 2516 
Q 3050 2419 3304 2112 
Q 3559 1806 3559 1356 
Q 3559 666 3084 287 
Q 2609 -91 1734 -91 
Q 1441 -91 1130 -33 
Q 819 25 488 141 
L 488 750 
Q 750 597 1062 519 
Q 1375 441 1716 441 
Q 2309 441 2620 675 
Q 2931 909 2931 1356 
Q 2931 1769 2642 2001 
Q 2353 2234 1838 2234 
L 1294 2234 
L 1294 2753 
L 1863 2753 
Q 2328 2753 2575 2939 
Q 2822 3125 2822 3475 
Q 2822 3834 2567 4026 
Q 2313 4219 1838 4219 
Q 1578 4219 1281 4162 
Q 984 4106 628 3988 
L 628 4550 
Q 988 4650 1302 4700 
Q 1616 4750 1894 4750 
Q 2613 4750 3031 4423 
Q 3450 4097 3450 3541 
Q 3450 3153 3228 2886 
Q 3006 2619 2597 2516 
z
" transform="scale(0.015625)"/>
        <path id="DejaVuSans-3a" d="M 750 794 
L 1409 794 
L 1409 0 
L 750 0 
L 750 794 
z
M 750 3309 
L 1409 3309 
L 1409 2516 
L 750 2516 
L 750 3309 
z
" transform="scale(0.015625)"/>
       </defs>
       <use xlink:href="#DejaVuSans-32"/>
       <use xlink:href="#DejaVuSans-33" transform="translate(63.623047 0)"/>
       <use xlink:href="#DejaVuSans-2d" transform="translate(127.246094 0)"/>
       <use xlink:href="#DejaVuSans-4d" transform="translate(163.330078 0)"/>
       <use xlink:href="#DejaVuSans-61" transform="translate(249.609375 0)"/>
       <use xlink:href="#DejaVuSans-79" transform="translate(310.888672 0)"/>
       <use xlink:href="#DejaVuSans-20" transform="translate(370.068359 0)"/>
       <use xlink:href="#DejaVuSans-31" transform="translate(401.855469 0)"/>
       <use xlink:href="#DejaVuSans-36" transform="translate(465.478516 0)"/>
       <use xlink:href="#DejaVuSans-3a" transform="translate(529.101562 0)"/>
       <use xlink:href="#DejaVuSans-30" transform="translate(562.792969 0)"/>
       <use xlink:href="#DejaVuSans-30" transform="translate(626.416016 0)"/>
      </g>
     </g>
    </g>
    <g id="xtick_11">
     <g id="line2d_39">
      <path d="M 300.987204 823.2 
L 300.987204 562.333333 
" clip-path="url(#p7cb55bc296)" style="fill: none; stroke-dasharray: 2.96,1.28; stroke-dashoffset: 0; stroke: #b0b0b0; stroke-opacity: 0.4; stroke-width: 0.8"/>
     </g>
     <g id="line2d_40">
      <g>
       <use xlink:href="#ma05d95eb64" x="300.987204" y="823.2" style="stroke: #000000; stroke-width: 0.8"/>
      </g>
     </g>
     <g id="text_13">
      <!-- 23-May 22:00 -->
      <g transform="translate(266.48486 837.798437) scale(0.1 -0.1)">
       <use xlink:href="#DejaVuSans-32"/>
       <use xlink:href="#DejaVuSans-33" transform="translate(63.623047 0)"/>
       <use xlink:href="#DejaVuSans-2d" transform="translate(127.246094 0)"/>
       <use xlink:href="#DejaVuSans-4d" transform="translate(163.330078 0)"/>
       <use xlink:href="#DejaVuSans-61" transform="translate(249.609375 0)"/>
       <use xlink:href="#DejaVuSans-79" transform="translate(310.888672 0)"/>
       <use xlink:href="#DejaVuSans-20" transform="translate(370.068359 0)"/>
       <use xlink:href="#DejaVuSans-32" transform="translate(401.855469 0)"/>
       <use xlink:href="#DejaVuSans-32" transform="translate(465.478516 0)"/>
       <use xlink:href="#DejaVuSans-3a" transform="translate(529.101562 0)"/>
       <use xlink:href="#DejaVuSans-30" transform="translate(562.792969 0)"/>
       <use xlink:href="#DejaVuSans-30" transform="translate(626.416016 0)"/>
      </g>
     </g>
    </g>
    <g id="xtick_12">
     <g id="line2d_41">
      <path d="M 535.432244 823.2 
L 535.432244 562.333333 
" clip-path="url(#p7cb55bc296)" style="fill: none; stroke-dasharray: 2.96,1.28; stroke-dashoffset: 0; stroke: #b0b0b0; stroke-opacity: 0.4; stroke-width: 0.8"/>
     </g>
     <g id="line2d_42">
      <g>
       <use xlink:href="#ma05d95eb64" x="535.432244" y="823.2" style="stroke: #000000; stroke-width: 0.8"/>
      </g>
     </g>
     <g id="text_14">
      <!-- 24-May 04:00 -->
      <g transform="translate(500.929901 837.798437) scale(0.1 -0.1)">
       <use xlink:href="#DejaVuSans-32"/>
       <use xlink:href="#DejaVuSans-34" transform="translate(63.623047 0)"/>
       <use xlink:href="#DejaVuSans-2d" transform="translate(127.246094 0)"/>
       <use xlink:href="#DejaVuSans-4d" transform="translate(163.330078 0)"/>
       <use xlink:href="#DejaVuSans-61" transform="translate(249.609375 0)"/>
       <use xlink:href="#DejaVuSans-79" transform="translate(310.888672 0)"/>
       <use xlink:href="#DejaVuSans-20" transform="translate(370.068359 0)"/>
       <use xlink:href="#DejaVuSans-30" transform="translate(401.855469 0)"/>
       <use xlink:href="#DejaVuSans-34" transform="translate(465.478516 0)"/>
       <use xlink:href="#DejaVuSans-3a" transform="translate(529.101562 0)"/>
       <use xlink:href="#DejaVuSans-30" transform="translate(562.792969 0)"/>
       <use xlink:href="#DejaVuSans-30" transform="translate(626.416016 0)"/>
      </g>
     </g>
    </g>
    <g id="xtick_13">
     <g id="line2d_43">
      <path d="M 769.877285 823.2 
L 769.877285 562.333333 
" clip-path="url(#p7cb55bc296)" style="fill: none; stroke-dasharray: 2.96,1.28; stroke-dashoffset: 0; stroke: #b0b0b0; stroke-opacity: 0.4; stroke-width: 0.8"/>
     </g>
     <g id="line2d_44">
      <g>
       <use xlink:href="#ma05d95eb64" x="769.877285" y="823.2" style="stroke: #000000; stroke-width: 0.8"/>
      </g>
     </g>
     <g id="text_15">
      <!-- 24-May 10:00 -->
      <g transform="translate(735.374942 837.798437) scale(0.1 -0.1)">
       <use xlink:href="#DejaVuSans-32"/>
       <use xlink:href="#DejaVuSans-34" transform="translate(63.623047 0)"/>
       <use xlink:href="#DejaVuSans-2d" transform="translate(127.246094 0)"/>
       <use xlink:href="#DejaVuSans-4d" transform="translate(163.330078 0)"/>
       <use xlink:href="#DejaVuSans-61" transform="translate(249.609375 0)"/>
       <use xlink:href="#DejaVuSans-79" transform="translate(310.888672 0)"/>
       <use xlink:href="#DejaVuSans-20" transform="translate(370.068359 0)"/>
       <use xlink:href="#DejaVuSans-31" transform="translate(401.855469 0)"/>
       <use xlink:href="#DejaVuSans-30" transform="translate(465.478516 0)"/>
       <use xlink:href="#DejaVuSans-3a" transform="translate(529.101562 0)"/>
       <use xlink:href="#DejaVuSans-30" transform="translate(562.792969 0)"/>
       <use xlink:href="#DejaVuSans-30" transform="translate(626.416016 0)"/>
      </g>
     </g>
    </g>
    <g id="xtick_14">
     <g id="line2d_45">
      <path d="M 1004.322326 823.2 
L 1004.322326 562.333333 
" clip-path="url(#p7cb55bc296)" style="fill: none; stroke-dasharray: 2.96,1.28; stroke-dashoffset: 0; stroke: #b0b0b0; stroke-opacity: 0.4; stroke-width: 0.8"/>
     </g>
     <g id="line2d_46">
      <g>
       <use xlink:href="#ma05d95eb64" x="1004.322326" y="823.2" style="stroke: #000000; stroke-width: 0.8"/>
      </g>
     </g>
     <g id="text_16">
      <!-- 24-May 16:00 -->
      <g transform="translate(969.819983 837.798437) scale(0.1 -0.1)">
       <use xlink:href="#DejaVuSans-32"/>
       <use xlink:href="#DejaVuSans-34" transform="translate(63.623047 0)"/>
       <use xlink:href="#DejaVuSans-2d" transform="translate(127.246094 0)"/>
       <use xlink:href="#DejaVuSans-4d" transform="translate(163.330078 0)"/>
       <use xlink:href="#DejaVuSans-61" transform="translate(249.609375 0)"/>
       <use xlink:href="#DejaVuSans-79" transform="translate(310.888672 0)"/>
       <use xlink:href="#DejaVuSans-20" transform="translate(370.068359 0)"/>
       <use xlink:href="#DejaVuSans-31" transform="translate(401.855469 0)"/>
       <use xlink:href="#DejaVuSans-36" transform="translate(465.478516 0)"/>
       <use xlink:href="#DejaVuSans-3a" transform="translate(529.101562 0)"/>
       <use xlink:href="#DejaVuSans-30" transform="translate(562.792969 0)"/>
       <use xlink:href="#DejaVuSans-30" transform="translate(626.416016 0)"/>
      </g>
     </g>
    </g>
    <g id="xtick_15">
     <g id="line2d_47">
      <path d="M 1238.767367 823.2 
L 1238.767367 562.333333 
" clip-path="url(#p7cb55bc296)" style="fill: none; stroke-dasharray: 2.96,1.28; stroke-dashoffset: 0; stroke: #b0b0b0; stroke-opacity: 0.4; stroke-width: 0.8"/>
     </g>
     <g id="line2d_48">
      <g>
       <use xlink:href="#ma05d95eb64" x="1238.767367" y="823.2" style="stroke: #000000; stroke-width: 0.8"/>
      </g>
     </g>
     <g id="text_17">
      <!-- 24-May 22:00 -->
      <g transform="translate(1204.265023 837.798437) scale(0.1 -0.1)">
       <use xlink:href="#DejaVuSans-32"/>
       <use xlink:href="#DejaVuSans-34" transform="translate(63.623047 0)"/>
       <use xlink:href="#DejaVuSans-2d" transform="translate(127.246094 0)"/>
       <use xlink:href="#DejaVuSans-4d" transform="translate(163.330078 0)"/>
       <use xlink:href="#DejaVuSans-61" transform="translate(249.609375 0)"/>
       <use xlink:href="#DejaVuSans-79" transform="translate(310.888672 0)"/>
       <use xlink:href="#DejaVuSans-20" transform="translate(370.068359 0)"/>
       <use xlink:href="#DejaVuSans-32" transform="translate(401.855469 0)"/>
       <use xlink:href="#DejaVuSans-32" transform="translate(465.478516 0)"/>
       <use xlink:href="#DejaVuSans-3a" transform="translate(529.101562 0)"/>
       <use xlink:href="#DejaVuSans-30" transform="translate(562.792969 0)"/>
       <use xlink:href="#DejaVuSans-30" transform="translate(626.416016 0)"/>
      </g>
     </g>
    </g>
    <g id="xtick_16">
     <g id="line2d_49">
      <path d="M 1473.212408 823.2 
L 1473.212408 562.333333 
" clip-path="url(#p7cb55bc296)" style="fill: none; stroke-dasharray: 2.96,1.28; stroke-dashoffset: 0; stroke: #b0b0b0; stroke-opacity: 0.4; stroke-width: 0.8"/>
     </g>
     <g id="line2d_50">
      <g>
       <use xlink:href="#ma05d95eb64" x="1473.212408" y="823.2" style="stroke: #000000; stroke-width: 0.8"/>
      </g>
     </g>
     <g id="text_18">
      <!-- 25-May 04:00 -->
      <g transform="translate(1438.710064 837.798437) scale(0.1 -0.1)">
       <defs>
        <path id="DejaVuSans-35" d="M 691 4666 
L 3169 4666 
L 3169 4134 
L 1269 4134 
L 1269 2991 
Q 1406 3038 1543 3061 
Q 1681 3084 1819 3084 
Q 2600 3084 3056 2656 
Q 3513 2228 3513 1497 
Q 3513 744 3044 326 
Q 2575 -91 1722 -91 
Q 1428 -91 1123 -41 
Q 819 9 494 109 
L 494 744 
Q 775 591 1075 516 
Q 1375 441 1709 441 
Q 2250 441 2565 725 
Q 2881 1009 2881 1497 
Q 2881 1984 2565 2268 
Q 2250 2553 1709 2553 
Q 1456 2553 1204 2497 
Q 953 2441 691 2322 
L 691 4666 
z
" transform="scale(0.015625)"/>
       </defs>
       <use xlink:href="#DejaVuSans-32"/>
       <use xlink:href="#DejaVuSans-35" transform="translate(63.623047 0)"/>
       <use xlink:href="#DejaVuSans-2d" transform="translate(127.246094 0)"/>
       <use xlink:href="#DejaVuSans-4d" transform="translate(163.330078 0)"/>
       <use xlink:href="#DejaVuSans-61" transform="translate(249.609375 0)"/>
       <use xlink:href="#DejaVuSans-79" transform="translate(310.888672 0)"/>
       <use xlink:href="#DejaVuSans-20" transform="translate(370.068359 0)"/>
       <use xlink:href="#DejaVuSans-30" transform="translate(401.855469 0)"/>
       <use xlink:href="#DejaVuSans-34" transform="translate(465.478516 0)"/>
       <use xlink:href="#DejaVuSans-3a" transform="translate(529.101562 0)"/>
       <use xlink:href="#DejaVuSans-30" transform="translate(562.792969 0)"/>
       <use xlink:href="#DejaVuSans-30" transform="translate(626.416016 0)"/>
      </g>
     </g>
    </g>
    <g id="xtick_17">
     <g id="line2d_51">
      <path d="M 1707.657449 823.2 
L 1707.657449 562.333333 
" clip-path="url(#p7cb55bc296)" style="fill: none; stroke-dasharray: 2.96,1.28; stroke-dashoffset: 0; stroke: #b0b0b0; stroke-opacity: 0.4; stroke-width: 0.8"/>
     </g>
     <g id="line2d_52">
      <g>
       <use xlink:href="#ma05d95eb64" x="1707.657449" y="823.2" style="stroke: #000000; stroke-width: 0.8"/>
      </g>
     </g>
     <g id="text_19">
      <!-- 25-May 10:00 -->
      <g transform="translate(1673.155105 837.798437) scale(0.1 -0.1)">
       <use xlink:href="#DejaVuSans-32"/>
       <use xlink:href="#DejaVuSans-35" transform="translate(63.623047 0)"/>
       <use xlink:href="#DejaVuSans-2d" transform="translate(127.246094 0)"/>
       <use xlink:href="#DejaVuSans-4d" transform="translate(163.330078 0)"/>
       <use xlink:href="#DejaVuSans-61" transform="translate(249.609375 0)"/>
       <use xlink:href="#DejaVuSans-79" transform="translate(310.888672 0)"/>
       <use xlink:href="#DejaVuSans-20" transform="translate(370.068359 0)"/>
       <use xlink:href="#DejaVuSans-31" transform="translate(401.855469 0)"/>
       <use xlink:href="#DejaVuSans-30" transform="translate(465.478516 0)"/>
       <use xlink:href="#DejaVuSans-3a" transform="translate(529.101562 0)"/>
       <use xlink:href="#DejaVuSans-30" transform="translate(562.792969 0)"/>
       <use xlink:href="#DejaVuSans-30" transform="translate(626.416016 0)"/>
      </g>
     </g>
    </g>
    <g id="xtick_18">
     <g id="line2d_53">
      <path d="M 1942.10249 823.2 
L 1942.10249 562.333333 
" clip-path="url(#p7cb55bc296)" style="fill: none; stroke-dasharray: 2.96,1.28; stroke-dashoffset: 0; stroke: #b0b0b0; stroke-opacity: 0.4; stroke-width: 0.8"/>
     </g>
     <g id="line2d_54">
      <g>
       <use xlink:href="#ma05d95eb64" x="1942.10249" y="823.2" style="stroke: #000000; stroke-width: 0.8"/>
      </g>
     </g>
     <g id="text_20">
      <!-- 25-May 16:00 -->
      <g transform="translate(1907.600146 837.798437) scale(0.1 -0.1)">
       <use xlink:href="#DejaVuSans-32"/>
       <use xlink:href="#DejaVuSans-35" transform="translate(63.623047 0)"/>
       <use xlink:href="#DejaVuSans-2d" transform="translate(127.246094 0)"/>
       <use xlink:href="#DejaVuSans-4d" transform="translate(163.330078 0)"/>
       <use xlink:href="#DejaVuSans-61" transform="translate(249.609375 0)"/>
       <use xlink:href="#DejaVuSans-79" transform="translate(310.888672 0)"/>
       <use xlink:href="#DejaVuSans-20" transform="translate(370.068359 0)"/>
       <use xlink:href="#DejaVuSans-31" transform="translate(401.855469 0)"/>
       <use xlink:href="#DejaVuSans-36" transform="translate(465.478516 0)"/>
       <use xlink:href="#DejaVuSans-3a" transform="translate(529.101562 0)"/>
       <use xlink:href="#DejaVuSans-30" transform="translate(562.792969 0)"/>
       <use xlink:href="#DejaVuSans-30" transform="translate(626.416016 0)"/>
      </g>
     </g>
    </g>
    <g id="text_21">
     <!-- Time -->
     <g transform="translate(1072.516406 851.476562) scale(0.1 -0.1)">
      <use xlink:href="#DejaVuSans-54"/>
      <use xlink:href="#DejaVuSans-69" transform="translate(57.958984 0)"/>
      <use xlink:href="#DejaVuSans-6d" transform="translate(85.742188 0)"/>
      <use xlink:href="#DejaVuSans-65" transform="translate(183.154297 0)"/>
     </g>
    </g>
   </g>
   <g id="matplotlib.axis_4">
    <g id="ytick_7">
     <g id="line2d_55">
      <path d="M 53.55 820.557482 
L 2115.95 820.557482 
" clip-path="url(#p7cb55bc296)" style="fill: none; stroke: #b0b0b0; stroke-opacity: 0.25; stroke-width: 0.8; stroke-linecap: square"/>
     </g>
     <g id="line2d_56">
      <g>
       <use xlink:href="#mce52e9632a" x="53.55" y="820.557482" style="stroke: #000000; stroke-width: 0.8"/>
      </g>
     </g>
     <g id="text_22">
      <!-- 1.00 -->
      <g transform="translate(24.284375 824.3567) scale(0.1 -0.1)">
       <defs>
        <path id="DejaVuSans-2e" d="M 684 794 
L 1344 794 
L 1344 0 
L 684 0 
L 684 794 
z
" transform="scale(0.015625)"/>
       </defs>
       <use xlink:href="#DejaVuSans-31"/>
       <use xlink:href="#DejaVuSans-2e" transform="translate(63.623047 0)"/>
       <use xlink:href="#DejaVuSans-30" transform="translate(95.410156 0)"/>
       <use xlink:href="#DejaVuSans-30" transform="translate(159.033203 0)"/>
      </g>
     </g>
    </g>
    <g id="ytick_8">
     <g id="line2d_57">
      <path d="M 53.55 784.646873 
L 2115.95 784.646873 
" clip-path="url(#p7cb55bc296)" style="fill: none; stroke: #b0b0b0; stroke-opacity: 0.25; stroke-width: 0.8; stroke-linecap: square"/>
     </g>
     <g id="line2d_58">
      <g>
       <use xlink:href="#mce52e9632a" x="53.55" y="784.646873" style="stroke: #000000; stroke-width: 0.8"/>
      </g>
     </g>
     <g id="text_23">
      <!-- 1.05 -->
      <g transform="translate(24.284375 788.446091) scale(0.1 -0.1)">
       <use xlink:href="#DejaVuSans-31"/>
       <use xlink:href="#DejaVuSans-2e" transform="translate(63.623047 0)"/>
       <use xlink:href="#DejaVuSans-30" transform="translate(95.410156 0)"/>
       <use xlink:href="#DejaVuSans-35" transform="translate(159.033203 0)"/>
      </g>
     </g>
    </g>
    <g id="ytick_9">
     <g id="line2d_59">
      <path d="M 53.55 748.736264 
L 2115.95 748.736264 
" clip-path="url(#p7cb55bc296)" style="fill: none; stroke: #b0b0b0; stroke-opacity: 0.25; stroke-width: 0.8; stroke-linecap: square"/>
     </g>
     <g id="line2d_60">
      <g>
       <use xlink:href="#mce52e9632a" x="53.55" y="748.736264" style="stroke: #000000; stroke-width: 0.8"/>
      </g>
     </g>
     <g id="text_24">
      <!-- 1.10 -->
      <g transform="translate(24.284375 752.535482) scale(0.1 -0.1)">
       <use xlink:href="#DejaVuSans-31"/>
       <use xlink:href="#DejaVuSans-2e" transform="translate(63.623047 0)"/>
       <use xlink:href="#DejaVuSans-31" transform="translate(95.410156 0)"/>
       <use xlink:href="#DejaVuSans-30" transform="translate(159.033203 0)"/>
      </g>
     </g>
    </g>
    <g id="ytick_10">
     <g id="line2d_61">
      <path d="M 53.55 712.825655 
L 2115.95 712.825655 
" clip-path="url(#p7cb55bc296)" style="fill: none; stroke: #b0b0b0; stroke-opacity: 0.25; stroke-width: 0.8; stroke-linecap: square"/>
     </g>
     <g id="line2d_62">
      <g>
       <use xlink:href="#mce52e9632a" x="53.55" y="712.825655" style="stroke: #000000; stroke-width: 0.8"/>
      </g>
     </g>
     <g id="text_25">
      <!-- 1.15 -->
      <g transform="translate(24.284375 716.624873) scale(0.1 -0.1)">
       <use xlink:href="#DejaVuSans-31"/>
       <use xlink:href="#DejaVuSans-2e" transform="translate(63.623047 0)"/>
       <use xlink:href="#DejaVuSans-31" transform="translate(95.410156 0)"/>
       <use xlink:href="#DejaVuSans-35" transform="translate(159.033203 0)"/>
      </g>
     </g>
    </g>
    <g id="ytick_11">
     <g id="line2d_63">
      <path d="M 53.55 676.915046 
L 2115.95 676.915046 
" clip-path="url(#p7cb55bc296)" style="fill: none; stroke: #b0b0b0; stroke-opacity: 0.25; stroke-width: 0.8; stroke-linecap: square"/>
     </g>
     <g id="line2d_64">
      <g>
       <use xlink:href="#mce52e9632a" x="53.55" y="676.915046" style="stroke: #000000; stroke-width: 0.8"/>
      </g>
     </g>
     <g id="text_26">
      <!-- 1.20 -->
      <g transform="translate(24.284375 680.714265) scale(0.1 -0.1)">
       <use xlink:href="#DejaVuSans-31"/>
       <use xlink:href="#DejaVuSans-2e" transform="translate(63.623047 0)"/>
       <use xlink:href="#DejaVuSans-32" transform="translate(95.410156 0)"/>
       <use xlink:href="#DejaVuSans-30" transform="translate(159.033203 0)"/>
      </g>
     </g>
    </g>
    <g id="ytick_12">
     <g id="line2d_65">
      <path d="M 53.55 641.004437 
L 2115.95 641.004437 
" clip-path="url(#p7cb55bc296)" style="fill: none; stroke: #b0b0b0; stroke-opacity: 0.25; stroke-width: 0.8; stroke-linecap: square"/>
     </g>
     <g id="line2d_66">
      <g>
       <use xlink:href="#mce52e9632a" x="53.55" y="641.004437" style="stroke: #000000; stroke-width: 0.8"/>
      </g>
     </g>
     <g id="text_27">
      <!-- 1.25 -->
      <g transform="translate(24.284375 644.803656) scale(0.1 -0.1)">
       <use xlink:href="#DejaVuSans-31"/>
       <use xlink:href="#DejaVuSans-2e" transform="translate(63.623047 0)"/>
       <use xlink:href="#DejaVuSans-32" transform="translate(95.410156 0)"/>
       <use xlink:href="#DejaVuSans-35" transform="translate(159.033203 0)"/>
      </g>
     </g>
    </g>
    <g id="ytick_13">
     <g id="line2d_67">
      <path d="M 53.55 605.093828 
L 2115.95 605.093828 
" clip-path="url(#p7cb55bc296)" style="fill: none; stroke: #b0b0b0; stroke-opacity: 0.25; stroke-width: 0.8; stroke-linecap: square"/>
     </g>
     <g id="line2d_68">
      <g>
       <use xlink:href="#mce52e9632a" x="53.55" y="605.093828" style="stroke: #000000; stroke-width: 0.8"/>
      </g>
     </g>
     <g id="text_28">
      <!-- 1.30 -->
      <g transform="translate(24.284375 608.893047) scale(0.1 -0.1)">
       <use xlink:href="#DejaVuSans-31"/>
       <use xlink:href="#DejaVuSans-2e" transform="translate(63.623047 0)"/>
       <use xlink:href="#DejaVuSans-33" transform="translate(95.410156 0)"/>
       <use xlink:href="#DejaVuSans-30" transform="translate(159.033203 0)"/>
      </g>
     </g>
    </g>
    <g id="ytick_14">
     <g id="line2d_69">
      <path d="M 53.55 569.183219 
L 2115.95 569.183219 
" clip-path="url(#p7cb55bc296)" style="fill: none; stroke: #b0b0b0; stroke-opacity: 0.25; stroke-width: 0.8; stroke-linecap: square"/>
     </g>
     <g id="line2d_70">
      <g>
       <use xlink:href="#mce52e9632a" x="53.55" y="569.183219" style="stroke: #000000; stroke-width: 0.8"/>
      </g>
     </g>
     <g id="text_29">
      <!-- 1.35 -->
      <g transform="translate(24.284375 572.982438) scale(0.1 -0.1)">
       <use xlink:href="#DejaVuSans-31"/>
       <use xlink:href="#DejaVuSans-2e" transform="translate(63.623047 0)"/>
       <use xlink:href="#DejaVuSans-33" transform="translate(95.410156 0)"/>
       <use xlink:href="#DejaVuSans-35" transform="translate(159.033203 0)"/>
      </g>
     </g>
    </g>
    <g id="text_30">
     <!-- Water level (m) -->
     <g transform="translate(18.204687 731.388542) rotate(-90) scale(0.1 -0.1)">
      <defs>
       <path id="DejaVuSans-57" d="M 213 4666 
L 850 4666 
L 1831 722 
L 2809 4666 
L 3519 4666 
L 4500 722 
L 5478 4666 
L 6119 4666 
L 4947 0 
L 4153 0 
L 3169 4050 
L 2175 0 
L 1381 0 
L 213 4666 
z
" transform="scale(0.015625)"/>
       <path id="DejaVuSans-6c" d="M 603 4863 
L 1178 4863 
L 1178 0 
L 603 0 
L 603 4863 
z
" transform="scale(0.015625)"/>
       <path id="DejaVuSans-76" d="M 191 3500 
L 800 3500 
L 1894 563 
L 2988 3500 
L 3597 3500 
L 2284 0 
L 1503 0 
L 191 3500 
z
" transform="scale(0.015625)"/>
      </defs>
      <use xlink:href="#DejaVuSans-57"/>
      <use xlink:href="#DejaVuSans-61" transform="translate(92.501953 0)"/>
      <use xlink:href="#DejaVuSans-74" transform="translate(153.78125 0)"/>
      <use xlink:href="#DejaVuSans-65" transform="translate(192.990234 0)"/>
      <use xlink:href="#DejaVuSans-72" transform="translate(254.513672 0)"/>
      <use xlink:href="#DejaVuSans-20" transform="translate(295.626953 0)"/>
      <use xlink:href="#DejaVuSans-6c" transform="translate(327.414062 0)"/>
      <use xlink:href="#DejaVuSans-65" transform="translate(355.197266 0)"/>
      <use xlink:href="#DejaVuSans-76" transform="translate(416.720703 0)"/>
      <use xlink:href="#DejaVuSans-65" transform="translate(475.900391 0)"/>
      <use xlink:href="#DejaVuSans-6c" transform="translate(537.423828 0)"/>
      <use xlink:href="#DejaVuSans-20" transform="translate(565.207031 0)"/>
      <use xlink:href="#DejaVuSans-28" transform="translate(596.994141 0)"/>
      <use xlink:href="#DejaVuSans-6d" transform="translate(636.007812 0)"/>
      <use xlink:href="#DejaVuSans-29" transform="translate(733.419922 0)"/>
     </g>
    </g>
   </g>
   <g id="line2d_71">
    <path d="M 147.295455 770.147903 
L 151.854108 775.649069 
L 156.412762 780.788469 
L 160.971415 785.552515 
L 164.878833 789.32859 
L 168.78625 792.814707 
L 172.693667 796.006174 
L 176.601085 798.899374 
L 180.508502 801.491691 
L 184.415919 803.781416 
L 187.6721 805.457704 
L 190.928282 806.923093 
L 194.184463 808.177756 
L 197.440644 809.222142 
L 200.696825 810.056936 
L 203.953006 810.683034 
L 207.209187 811.101518 
L 210.465368 811.313634 
L 213.721549 811.320785 
L 216.977731 811.124521 
L 220.233912 810.726542 
L 223.490093 810.128703 
L 226.746274 809.333032 
L 230.002455 808.341746 
L 233.909872 806.897432 
L 237.81729 805.179629 
L 241.724707 803.193611 
L 245.632124 800.945342 
L 249.539542 798.441568 
L 253.446959 795.689911 
L 258.005613 792.177852 
L 262.564266 788.355538 
L 267.12292 784.240423 
L 272.33281 779.204101 
L 277.542699 773.843566 
L 283.403826 767.47048 
L 289.916188 760.03017 
L 297.079786 751.505698 
L 306.84833 739.513956 
L 327.687889 713.811452 
L 335.502723 704.56005 
L 342.666322 696.42588 
L 349.178684 689.379176 
L 355.03981 683.354909 
L 360.900936 677.653646 
L 366.762062 672.289381 
L 371.971952 667.810535 
L 377.181842 663.606385 
L 382.391732 659.676633 
L 387.601621 656.019291 
L 392.811511 652.631423 
L 398.021401 649.509865 
L 403.231291 646.651853 
L 408.441181 644.055559 
L 413.65107 641.720484 
L 418.86096 639.647716 
L 424.07085 637.840029 
L 428.629504 636.479181 
L 433.188157 635.328519 
L 437.746811 634.392617 
L 442.305464 633.676553 
L 446.864118 633.185669 
L 451.422771 632.925327 
L 455.981425 632.900639 
L 460.540079 633.116214 
L 465.098732 633.575913 
L 469.657386 634.282626 
L 474.216039 635.238087 
L 478.774693 636.442722 
L 483.333346 637.895539 
L 487.892 639.594065 
L 492.450654 641.534314 
L 497.009307 643.710809 
L 501.567961 646.116622 
L 506.777851 649.136214 
L 511.98774 652.430023 
L 517.19763 655.981672 
L 523.058756 660.262868 
L 528.919882 664.819387 
L 535.432244 670.168439 
L 542.595843 676.349728 
L 551.061914 683.974709 
L 561.481693 693.684533 
L 589.484851 719.978309 
L 597.299686 726.943966 
L 604.463284 733.0337 
L 610.975647 738.263295 
L 616.836773 742.677223 
L 622.046662 746.33911 
L 627.256552 749.731737 
L 632.466442 752.83515 
L 637.025096 755.299481 
L 641.583749 757.518624 
L 646.142403 759.483859 
L 650.701056 761.188001 
L 655.25971 762.625374 
L 659.167127 763.641846 
L 663.074545 764.457355 
L 666.981962 765.070746 
L 670.889379 765.481498 
L 674.796797 765.689663 
L 678.704214 765.695797 
L 682.611631 765.50089 
L 686.519049 765.106308 
L 690.426466 764.513726 
L 694.333883 763.725075 
L 698.892537 762.560046 
L 703.45119 761.134783 
L 708.009844 759.453281 
L 712.568498 757.519809 
L 717.127151 755.338923 
L 721.685805 752.915515 
L 726.244458 750.254886 
L 730.803112 747.362835 
L 736.013002 743.782509 
L 741.222891 739.919028 
L 746.432781 735.784549 
L 752.293907 730.826555 
L 758.155033 725.565355 
L 764.667396 719.39477 
L 771.179758 712.919956 
L 778.343356 705.497708 
L 786.809427 696.403661 
L 797.880443 684.157846 
L 827.186073 651.541027 
L 836.30338 641.803582 
L 844.769451 633.091798 
L 852.584286 625.38924 
L 859.747884 618.653527 
L 866.260247 612.827223 
L 872.772609 607.307517 
L 878.633735 602.62103 
L 884.494861 598.219124 
L 889.704751 594.560081 
L 894.914641 591.154022 
L 900.12453 588.015166 
L 905.33442 585.158248 
L 909.893074 582.901563 
L 914.451727 580.882439 
L 919.010381 579.110953 
L 923.569034 577.596933 
L 928.127688 576.349797 
L 932.035105 575.49996 
L 935.942523 574.857853 
L 939.84994 574.428167 
L 943.757357 574.215077 
L 947.664775 574.222202 
L 951.572192 574.452568 
L 955.479609 574.908584 
L 959.387027 575.592032 
L 963.294444 576.504066 
L 967.201861 577.645218 
L 971.109279 579.015417 
L 975.016696 580.614011 
L 978.924113 582.439795 
L 982.831531 584.491039 
L 986.738948 586.765519 
L 991.297602 589.697607 
L 995.856255 592.924818 
L 1000.414909 596.441314 
L 1004.973562 600.240477 
L 1009.532216 604.314893 
L 1014.742106 609.297814 
L 1019.951996 614.615766 
L 1025.161885 620.253412 
L 1031.023011 626.956473 
L 1036.884137 634.01495 
L 1043.3965 642.236798 
L 1049.908862 650.811275 
L 1057.723697 661.489952 
L 1066.841004 674.352461 
L 1081.819437 695.954781 
L 1095.495398 715.531331 
L 1103.961469 727.265469 
L 1111.125067 736.824285 
L 1117.637429 745.143673 
L 1123.498555 752.281125 
L 1129.359681 759.05005 
L 1134.569571 764.733125 
L 1139.779461 770.083867 
L 1144.989351 775.088257 
L 1149.548004 779.174365 
L 1154.106658 782.981465 
L 1158.665312 786.505583 
L 1163.223965 789.744049 
L 1167.782619 792.695284 
L 1172.341272 795.35861 
L 1176.899926 797.734059 
L 1181.458579 799.82222 
L 1185.365997 801.384174 
L 1189.273414 802.736644 
L 1193.180831 803.880631 
L 1197.088249 804.817293 
L 1200.995666 805.547949 
L 1204.903083 806.074109 
L 1208.810501 806.397504 
L 1212.717918 806.520142 
L 1216.625336 806.444355 
L 1220.532753 806.172864 
L 1225.091406 805.613021 
L 1229.65006 804.797013 
L 1234.208714 803.731746 
L 1238.767367 802.425218 
L 1243.326021 800.886549 
L 1247.884674 799.125971 
L 1253.094564 796.856675 
L 1258.304454 794.330638 
L 1263.514344 791.567481 
L 1269.37547 788.201029 
L 1275.887832 784.175111 
L 1282.400194 779.88754 
L 1289.563793 774.9141 
L 1298.029864 768.748108 
L 1307.147171 761.82261 
L 1316.915714 754.129839 
L 1327.335494 745.64677 
L 1337.755273 736.881637 
L 1348.175053 727.821296 
L 1358.594832 718.456326 
L 1369.665848 708.191892 
L 1383.341809 695.184014 
L 1404.181368 675.347108 
L 1412.647439 667.602716 
L 1419.811038 661.335073 
L 1426.3234 655.93486 
L 1432.184526 651.365378 
L 1437.394416 647.56667 
L 1442.604305 644.040362 
L 1447.814195 640.807166 
L 1452.372849 638.232329 
L 1456.931502 635.90478 
L 1461.490156 633.831979 
L 1466.04881 632.019392 
L 1470.607463 630.470579 
L 1475.166117 629.187313 
L 1479.72477 628.169733 
L 1484.283424 627.416508 
L 1488.842077 626.925004 
L 1493.400731 626.691457 
L 1497.959385 626.711125 
L 1502.518038 626.978423 
L 1507.076692 627.487034 
L 1511.635345 628.229992 
L 1516.193999 629.199738 
L 1520.752652 630.388144 
L 1525.311306 631.786519 
L 1530.521196 633.629847 
L 1535.731086 635.720469 
L 1540.940975 638.04245 
L 1546.802101 640.909864 
L 1552.663227 644.02216 
L 1559.17559 647.7331 
L 1566.339188 652.07455 
L 1574.805259 657.477696 
L 1585.876275 664.8275 
L 1609.972015 680.907022 
L 1619.089322 686.67765 
L 1626.904157 691.370596 
L 1634.067756 695.42423 
L 1641.231354 699.210049 
L 1647.743716 702.399387 
L 1654.256079 705.333651 
L 1660.117205 707.746716 
L 1665.978331 709.936461 
L 1671.839457 711.896417 
L 1677.700583 713.620541 
L 1683.561709 715.102976 
L 1689.422835 716.337911 
L 1694.632724 717.223179 
L 1699.842614 717.904341 
L 1705.052504 718.377585 
L 1710.262394 718.639402 
L 1715.472284 718.686734 
L 1720.682173 718.517125 
L 1725.892063 718.128858 
L 1731.101953 717.521069 
L 1736.311843 716.693818 
L 1741.521733 715.648122 
L 1746.731622 714.385933 
L 1751.941512 712.910071 
L 1757.151402 711.224121 
L 1763.012528 709.08156 
L 1768.873654 706.685119 
L 1774.73478 704.041938 
L 1780.595906 701.159368 
L 1786.457032 698.044792 
L 1792.969394 694.320972 
L 1799.481757 690.329866 
L 1805.994119 686.081899 
L 1813.157717 681.126048 
L 1820.321316 675.890729 
L 1828.13615 669.886302 
L 1836.602221 663.077237 
L 1846.370765 654.904411 
L 1860.046726 643.119471 
L 1876.327631 629.12929 
L 1884.793702 622.15137 
L 1891.957301 616.542514 
L 1897.818427 612.219178 
L 1903.679553 608.184786 
L 1908.889442 604.877186 
L 1913.448096 602.222311 
L 1918.00675 599.810112 
L 1922.565403 597.657659 
L 1927.124057 595.780541 
L 1931.031474 594.401413 
L 1934.938891 593.242827 
L 1938.846309 592.311833 
L 1942.753726 591.614635 
L 1946.661143 591.156603 
L 1950.568561 590.942301 
L 1954.475978 590.975521 
L 1958.383395 591.259313 
L 1962.290813 591.796019 
L 1966.19823 592.587299 
L 1970.105647 593.63416 
L 1974.013065 594.936971 
L 1977.920482 596.495469 
L 1981.8279 598.308765 
L 1985.735317 600.37533 
L 1989.642734 602.69298 
L 1993.550152 605.258851 
L 1997.457569 608.069367 
L 2002.016222 611.651694 
L 2006.574876 615.55287 
L 2011.13353 619.763137 
L 2015.692183 624.271136 
L 2020.250837 629.063852 
L 2022.204545 631.201449 
L 2022.204545 631.201449 
" clip-path="url(#p7cb55bc296)" style="fill: none; stroke: #000000; stroke-width: 1.5; stroke-linecap: square"/>
   </g>
   <g id="patch_21">
    <path d="M 53.55 823.2 
L 53.55 562.333333 
" style="fill: none; stroke: #000000; stroke-width: 0.8; stroke-linejoin: miter; stroke-linecap: square"/>
   </g>
   <g id="patch_22">
    <path d="M 2115.95 823.2 
L 2115.95 562.333333 
" style="fill: none; stroke: #000000; stroke-width: 0.8; stroke-linejoin: miter; stroke-linecap: square"/>
   </g>
   <g id="patch_23">
    <path d="M 53.55 823.2 
L 2115.95 823.2 
" style="fill: none; stroke: #000000; stroke-width: 0.8; stroke-linejoin: miter; stroke-linecap: square"/>
   </g>
   <g id="patch_24">
    <path d="M 53.55 562.333333 
L 2115.95 562.333333 
" style="fill: none; stroke: #000000; stroke-width: 0.8; stroke-linejoin: miter; stroke-linecap: square"/>
   </g>
   <g id="legend_2">
    <g id="patch_25">
     <path d="M 60.55 585.011458 
L 134.346875 585.011458 
Q 136.346875 585.011458 136.346875 583.011458 
L 136.346875 569.333333 
Q 136.346875 567.333333 134.346875 567.333333 
L 60.55 567.333333 
Q 58.55 567.333333 58.55 569.333333 
L 58.55 583.011458 
Q 58.55 585.011458 60.55 585.011458 
z
" style="fill: #ffffff; opacity: 0.8; stroke: #cccccc; stroke-linejoin: miter"/>
    </g>
    <g id="line2d_72">
     <path d="M 62.55 575.431771 
L 72.55 575.431771 
L 82.55 575.431771 
" style="fill: none; stroke: #000000; stroke-width: 1.5; stroke-linecap: square"/>
    </g>
    <g id="text_31">
     <!-- Tide (m) -->
     <g transform="translate(90.55 578.931771) scale(0.1 -0.1)">
      <use xlink:href="#DejaVuSans-54"/>
      <use xlink:href="#DejaVuSans-69" transform="translate(57.958984 0)"/>
      <use xlink:href="#DejaVuSans-64" transform="translate(85.742188 0)"/>
      <use xlink:href="#DejaVuSans-65" transform="translate(149.21875 0)"/>
      <use xlink:href="#DejaVuSans-20" transform="translate(210.742188 0)"/>
      <use xlink:href="#DejaVuSans-28" transform="translate(242.529297 0)"/>
      <use xlink:href="#DejaVuSans-6d" transform="translate(281.542969 0)"/>
      <use xlink:href="#DejaVuSans-29" transform="translate(378.955078 0)"/>
     </g>
    </g>
   </g>
  </g>
  <g id="axes_3">
   <g id="matplotlib.axis_5">
    <g id="ytick_15">
     <g id="line2d_73">
      <defs>
       <path id="m10d052e4a1" d="M 0 0 
L 3.5 0 
" style="stroke: #000000; stroke-width: 0.8"/>
      </defs>
      <g>
       <use xlink:href="#m10d052e4a1" x="2115.95" y="538" style="stroke: #000000; stroke-width: 0.8"/>
      </g>
     </g>
     <g id="text_32">
      <!-- 10 -->
      <g style="fill: #0000ff" transform="translate(2122.95 541.799219) scale(0.1 -0.1)">
       <use xlink:href="#DejaVuSans-31"/>
       <use xlink:href="#DejaVuSans-30" transform="translate(63.623047 0)"/>
      </g>
     </g>
    </g>
    <g id="ytick_16">
     <g id="line2d_74">
      <g>
       <use xlink:href="#m10d052e4a1" x="2115.95" y="437.666667" style="stroke: #000000; stroke-width: 0.8"/>
      </g>
     </g>
     <g id="text_33">
      <!-- 11 -->
      <g style="fill: #0000ff" transform="translate(2122.95 441.465885) scale(0.1 -0.1)">
       <use xlink:href="#DejaVuSans-31"/>
       <use xlink:href="#DejaVuSans-31" transform="translate(63.623047 0)"/>
      </g>
     </g>
    </g>
    <g id="ytick_17">
     <g id="line2d_75">
      <g>
       <use xlink:href="#m10d052e4a1" x="2115.95" y="337.333333" style="stroke: #000000; stroke-width: 0.8"/>
      </g>
     </g>
     <g id="text_34">
      <!-- 12 -->
      <g style="fill: #0000ff" transform="translate(2122.95 341.132552) scale(0.1 -0.1)">
       <use xlink:href="#DejaVuSans-31"/>
       <use xlink:href="#DejaVuSans-32" transform="translate(63.623047 0)"/>
      </g>
     </g>
    </g>
    <g id="ytick_18">
     <g id="line2d_76">
      <g>
       <use xlink:href="#m10d052e4a1" x="2115.95" y="237" style="stroke: #000000; stroke-width: 0.8"/>
      </g>
     </g>
     <g id="text_35">
      <!-- 13 -->
      <g style="fill: #0000ff" transform="translate(2122.95 240.799219) scale(0.1 -0.1)">
       <use xlink:href="#DejaVuSans-31"/>
       <use xlink:href="#DejaVuSans-33" transform="translate(63.623047 0)"/>
      </g>
     </g>
    </g>
    <g id="ytick_19">
     <g id="line2d_77">
      <g>
       <use xlink:href="#m10d052e4a1" x="2115.95" y="136.666667" style="stroke: #000000; stroke-width: 0.8"/>
      </g>
     </g>
     <g id="text_36">
      <!-- 14 -->
      <g style="fill: #0000ff" transform="translate(2122.95 140.465885) scale(0.1 -0.1)">
       <use xlink:href="#DejaVuSans-31"/>
       <use xlink:href="#DejaVuSans-34" transform="translate(63.623047 0)"/>
      </g>
     </g>
    </g>
    <g id="ytick_20">
     <g id="line2d_78">
      <g>
       <use xlink:href="#m10d052e4a1" x="2115.95" y="36.333333" style="stroke: #000000; stroke-width: 0.8"/>
      </g>
     </g>
     <g id="text_37">
      <!-- 15 -->
      <g style="fill: #0000ff" transform="translate(2122.95 40.132552) scale(0.1 -0.1)">
       <use xlink:href="#DejaVuSans-31"/>
       <use xlink:href="#DejaVuSans-35" transform="translate(63.623047 0)"/>
      </g>
     </g>
    </g>
    <g id="text_38">
     <!-- Voltage (V) -->
     <g style="fill: #0000ff" transform="translate(2147.273437 314.833854) rotate(-90) scale(0.1 -0.1)">
      <defs>
       <path id="DejaVuSans-67" d="M 2906 1791 
Q 2906 2416 2648 2759 
Q 2391 3103 1925 3103 
Q 1463 3103 1205 2759 
Q 947 2416 947 1791 
Q 947 1169 1205 825 
Q 1463 481 1925 481 
Q 2391 481 2648 825 
Q 2906 1169 2906 1791 
z
M 3481 434 
Q 3481 -459 3084 -895 
Q 2688 -1331 1869 -1331 
Q 1566 -1331 1297 -1286 
Q 1028 -1241 775 -1147 
L 775 -588 
Q 1028 -725 1275 -790 
Q 1522 -856 1778 -856 
Q 2344 -856 2625 -561 
Q 2906 -266 2906 331 
L 2906 616 
Q 2728 306 2450 153 
Q 2172 0 1784 0 
Q 1141 0 747 490 
Q 353 981 353 1791 
Q 353 2603 747 3093 
Q 1141 3584 1784 3584 
Q 2172 3584 2450 3431 
Q 2728 3278 2906 2969 
L 2906 3500 
L 3481 3500 
L 3481 434 
z
" transform="scale(0.015625)"/>
      </defs>
      <use xlink:href="#DejaVuSans-56"/>
      <use xlink:href="#DejaVuSans-6f" transform="translate(60.658203 0)"/>
      <use xlink:href="#DejaVuSans-6c" transform="translate(121.839844 0)"/>
      <use xlink:href="#DejaVuSans-74" transform="translate(149.623047 0)"/>
      <use xlink:href="#DejaVuSans-61" transform="translate(188.832031 0)"/>
      <use xlink:href="#DejaVuSans-67" transform="translate(250.111328 0)"/>
      <use xlink:href="#DejaVuSans-65" transform="translate(313.587891 0)"/>
      <use xlink:href="#DejaVuSans-20" transform="translate(375.111328 0)"/>
      <use xlink:href="#DejaVuSans-28" transform="translate(406.898438 0)"/>
      <use xlink:href="#DejaVuSans-56" transform="translate(445.912109 0)"/>
      <use xlink:href="#DejaVuSans-29" transform="translate(514.320312 0)"/>
     </g>
    </g>
   </g>
   <g id="line2d_79">
    <path d="M 149.021231 199.375 
L 155.533593 199.375 
L 162.045955 199.375 
L 168.558317 199.375 
L 175.07068 199.375 
L 181.583042 199.375 
L 188.095404 199.375 
L 194.607766 199.375 
L 201.120129 199.375 
L 207.632491 199.375 
L 214.144853 199.375 
L 220.657215 199.375 
L 228.103016 211.916667 
L 234.984412 199.375 
L 241.496774 199.375 
L 248.009137 199.375 
L 254.521499 199.375 
L 261.033861 199.375 
L 267.546223 199.375 
L 274.058586 199.375 
L 280.570948 199.375 
L 287.08331 199.375 
L 293.595672 199.375 
L 300.108035 199.375 
L 306.620397 199.375 
L 313.132759 199.375 
L 319.645121 199.375 
L 326.157484 199.375 
L 332.669846 199.375 
L 339.182208 199.375 
L 345.69457 199.375 
L 352.532551 211.916667 
L 359.044913 211.916667 
L 365.557275 211.916667 
L 372.069637 211.916667 
L 378.582 211.916667 
L 385.094362 211.916667 
L 391.606724 211.916667 
L 398.119086 211.916667 
L 404.631449 211.916667 
L 411.143811 211.916667 
L 417.656173 211.916667 
L 424.168535 211.916667 
L 430.680898 211.916667 
L 437.19326 211.916667 
L 443.705622 224.458333 
L 450.217984 224.458333 
L 456.730347 224.458333 
L 463.242709 224.458333 
L 469.755071 224.458333 
L 476.267433 224.458333 
L 482.779796 224.458333 
L 489.292158 224.458333 
L 496.130138 211.916667 
L 502.642501 211.916667 
L 509.154863 211.916667 
L 515.667225 211.916667 
L 522.179587 211.916667 
L 528.69195 211.916667 
L 535.204312 211.916667 
L 541.716674 211.916667 
L 548.229036 211.916667 
L 554.741399 211.916667 
L 561.253761 211.916667 
L 567.766123 211.916667 
L 574.278485 211.916667 
L 580.790848 211.916667 
L 587.30321 211.916667 
L 593.815572 211.916667 
L 600.327934 211.916667 
L 606.840297 211.916667 
L 613.352659 211.916667 
L 619.865021 211.916667 
L 626.377383 211.916667 
L 632.889745 211.916667 
L 639.402108 211.916667 
L 645.91447 211.916667 
L 652.426832 211.916667 
L 658.939194 211.916667 
L 665.451557 211.916667 
L 671.963919 211.916667 
L 678.476281 211.916667 
L 684.988643 199.375 
L 692.434444 211.916667 
L 699.31584 199.375 
L 705.828203 199.375 
L 712.340565 199.375 
L 718.852927 199.375 
L 725.365289 199.375 
L 731.877652 199.375 
L 738.390014 199.375 
L 744.902376 199.375 
L 751.414738 199.375 
L 757.927101 199.375 
L 764.439463 199.375 
L 770.951825 186.833333 
L 777.464187 186.833333 
L 783.97655 186.833333 
L 790.488912 186.833333 
L 797.001274 186.833333 
L 803.513636 186.833333 
L 810.025999 186.833333 
L 816.538361 186.833333 
L 823.050723 186.833333 
L 829.563085 186.833333 
L 836.075448 186.833333 
" clip-path="url(#pcd6466ff05)" style="fill: none; stroke: #0000ff; stroke-width: 1.5; stroke-linecap: square"/>
   </g>
   <g id="patch_26">
    <path d="M 53.55 548.033333 
L 53.55 26.3 
" style="fill: none; stroke: #000000; stroke-width: 0.8; stroke-linejoin: miter; stroke-linecap: square"/>
   </g>
   <g id="patch_27">
    <path d="M 2115.95 548.033333 
L 2115.95 26.3 
" style="fill: none; stroke: #000000; stroke-width: 0.8; stroke-linejoin: miter; stroke-linecap: square"/>
   </g>
   <g id="patch_28">
    <path d="M 53.55 548.033333 
L 2115.95 548.033333 
" style="fill: none; stroke: #000000; stroke-width: 0.8; stroke-linejoin: miter; stroke-linecap: square"/>
   </g>
   <g id="patch_29">
    <path d="M 53.55 26.3 
L 2115.95 26.3 
" style="fill: none; stroke: #000000; stroke-width: 0.8; stroke-linejoin: miter; stroke-linecap: square"/>
   </g>
  </g>
 </g>
 <defs>
  <clipPath id="pcd6466ff05">
   <rect x="53.55" y="26.3" width="2062.4" height="521.733333"/>
  </clipPath>
  <clipPath id="p7cb55bc296">
   <rect x="53.55" y="562.333333" width="2062.4" height="260.866667"/>
  </clipPath>
 </defs>
</svg>
